/* XPM */
static char *d85a21170d7d4013e19d23ddaa699fc3aUEMFqEIJQbcIbCd[] = {
/* columns rows colors chars-per-pixel */
"64 64 137 2 ",
"   c #060606",
".  c #0C0C0C",
"X  c #141414",
"o  c #1C1C1C",
"O  c #1F1F20",
"+  c #222222",
"@  c #282727",
"#  c #282827",
"$  c #272728",
"%  c #2C2B2A",
"&  c #302F2E",
"*  c #30302E",
"=  c #343432",
"-  c #3A3937",
";  c #3C3C3A",
":  c #403F3B",
">  c #42413E",
",  c #464542",
"<  c #484743",
"1  c #4A4A45",
"2  c #444849",
"3  c #4E4E4A",
"4  c #504F4A",
"5  c #53524D",
"6  c #555553",
"7  c #585751",
"8  c #5C5B54",
"9  c #5D5D5A",
"0  c #605E57",
"q  c #615F58",
"w  c #63625B",
"e  c #69675F",
"r  c #656662",
"t  c #666863",
"y  c #6C6B63",
"u  c #6B6C6B",
"i  c #706E65",
"p  c #706F69",
"a  c #717067",
"s  c #74736B",
"d  c #78766D",
"f  c #7A786E",
"g  c #777772",
"h  c #787770",
"j  c #767974",
"k  c #7C7B72",
"l  c #7E7D78",
"z  c #817F74",
"x  c #828176",
"c  c #84837B",
"v  c #89877B",
"b  c #8C897E",
"n  c #868681",
"m  c #8D8C83",
"M  c #8C8D8C",
"N  c #918F82",
"B  c #8F9086",
"V  c #8F918D",
"C  c #959386",
"Z  c #999587",
"A  c #95948A",
"S  c #999689",
"D  c #9C9A8D",
"F  c #979795",
"G  c #9C9C92",
"H  c #9D9D9A",
"J  c #A19D8F",
"K  c #A19F92",
"L  c #A4A294",
"P  c #A9A697",
"I  c #A5A49C",
"U  c #A9A699",
"Y  c #ACAA9D",
"T  c #B1AE9E",
"R  c #A4A4A1",
"E  c #ACABA3",
"W  c #B1AFA0",
"Q  c #B4B3A4",
"!  c #B9B7A7",
"~  c #B9B8A7",
"^  c #B5B5AB",
"/  c #B8B7A9",
"(  c #BBBAAC",
")  c #B4B5B3",
"_  c #BEBDB1",
"`  c #BABCB9",
"'  c #C0BFB2",
"]  c #C0C0AF",
"[  c #C5C4B4",
"{  c #C9C7B6",
"}  c #C9C9B6",
"|  c #C4C4BA",
" . c #C9C7B9",
".. c #CACABC",
"X. c #CFD0BD",
"o. c #D0D2BF",
"O. c #C9C6C0",
"+. c #CCCCC1",
"@. c #CBCCCA",
"#. c #D0CFC4",
"$. c #D4D3C4",
"%. c #DADAC7",
"&. c #D5D6C9",
"*. c #D7D9CA",
"=. c #DBDBCB",
"-. c #DBDBD2",
";. c #DCDCDB",
":. c #DFE0CC",
">. c #DFE0DD",
",. c #E4E5D1",
"<. c #E2E3D6",
"1. c #EAEBD6",
"2. c #E4E4DA",
"3. c #E9EAD8",
"4. c #EFF0DB",
"5. c #F2F3DE",
"6. c #F3F4DF",
"7. c #EFEFE9",
"8. c #EFEFEF",
"9. c #F2F3E0",
"0. c #F5F5E1",
"q. c #F3F3E7",
"w. c #F7F9E3",
"e. c #F8F8E3",
"r. c #FAFCE7",
"t. c #F2F2EA",
"y. c #F0F0EC",
"u. c #FAFAEC",
"i. c #FDFDEC",
"p. c #F1F1F1",
"a. c #F6F6F6",
"s. c #FFFFF2",
"d. c #FAFAF7",
"f. c #FFFFF6",
"g. c gray98",
"h. c #FFFFFB",
"j. c #FFFFFE",
/* pixels */
"+ + + + + + + + + + + + + + + + + + + + + + + + + + + + + + + + + + + + + + + + + + + + + + + + + + + + + + + + + + + + + + + + ",
"+ + + + + + + + + + + + + + + + + + + + + + + + + + + + + + + + + + + + + + + + + + + + + + + + + + + + + + + + + + + + + + + + ",
"+ + + + + + + + + + + + + + + + + + + + + + + + + + + + + + + + + + + + + + + + + + + + + + + + + + + + + + + + + + + + + + + + ",
"+ + + + + + + + + + + + + + + + + + + + + + + + + + + + + + + + + + + + + + + + + + + + + + + + + + + + + + + + + + + + + + + + ",
"+ + + + + + + + + + + + + + + + + + + + + + + + + + + + + + @ $ + + + + + + + + + + + + + + + + + + + + + + + + + + + + + + + + ",
"+ + + + + + + + + + + + + + + + + + + + + + + + + + + % 2 u F F s 1 % + + + + + + + + + + + + + + + + + + + + + + + + + + + + + ",
"+ + + + + + + + + + + + + + + + + + + + + + + + + + 2 H ;.p.g.d.q.=.G 1 + + + + + + + + + + + + + + + + + + + + + + + + + + + + ",
"+ + + + + + + + + + + + + + + + + + + + + + + + + ; R a.j.j.h.f.i.w.,.D ; + + + + + + + + + + + + + + + + + + + + + + + + + + + ",
"+ + + + + + + + + + + + + + + + + + + + + + + + = M 8.j.j.h.s.i.r.5.,.} k = + + + + + + + + + + + + + + + + + + + + + + + + + + ",
"+ + + + + + + + + + + + + + + + + + + + + + + + r ;.j.j.h.i.e.6.4.1.=...U 9 @ + + + + + + + + + + + + + + + + + + + + + + + + + ",
"+ + + + + + + + + + + + + + + + + + + + + + + = k +.y.h.u.1.%.%.:.%.X.( Y d = + + + + + + + + + + + + + + + + + + + + + + + + + ",
"+ + + + + + + + + + + + + + + + + + + + + + + 5 g r ` h.&.m t B o.$.] Y P b > + + + + + + + + + + + + + + + + + + + + + + + + + ",
"+ + + + + + + + + + + + + + + + + + + + + + @ 9 M u ` f.^ 6 2 j ..$.Q L K N 1 + + + + + + + + + + + + + + + + + + + + + + + + + ",
"+ + + + + + + + + + + + + + + + + + + + + + + 6 ) @.>.u.+.V V ^ [ Q L S Z d - + + + + + + + + + + + + + + + + + + + + + + + + + ",
"+ + + + + + + + + + + + + + + + + + + + + + o = H 7.@.&.9.3.$.Q L D C N v 5 # + + + + + + + + + + + + + + + + + + + + + + + + + ",
"+ + + + + + + + + + + + + + + + + + + + + + + @ s <.-.*.1.$.Y Z C N b d 5 % + - 3 = % @ + + + + + + + + + + + + + + + + + + + + ",
"+ + + + + + + + + + + + + + + + + + + + + + + + 9 $.0.,.%.[ D b N Z v 1 + + % d P s c g = + + + + + + + + + + + + + + + + + + + ",
"+ + + + + + + + + + + + + + + + + + + + + + + + , D [ ~ Q Y N Z U P d = + + % z U N Y D > + + + + + + + + + + + + + + + + + + + ",
"+ + + + + + + + + + + + + + + + + + + + + + + o = A $.Q T P D K L Z 8 @ + O > m Z b c s ; + + + + + + + + + + + + + + + + + + + ",
"+ + + + + + + + + + + + + + + + + + + + + + + o ; L =.[ ~ Y D Z C k > + + % a m 5 5 8 w 3 % + + + + + + + + + + + + + + + + + + ",
"+ + + + + + + + + + + + + + + + + + + + + + + + % 4 y y d C Z N s < % + + 8 C w @ = 8 5 8 = + + + + + + + + + + + + + + + + + + ",
"+ + + + + + + + + + + + + + + + + + + + + + + + = r y , i D U U i % + + , m d = + @ 8 4 w 3 # + + + + + + + + + + + + + + + + + ",
"+ + + + + + + + + + + + + + + + + + + + + + + = y C x f G _ $.=.Y w 3 g L N , + + + > w z b 1 @ + + + + + + + + + + + + + + + + ",
"+ + + + + + + + + + + + + + + + + + + + + + @ 9 m w i J / ....~ L b A [ ( y % + + + % i D L y % + + + + + + + + + + + + + + + + ",
"+ + + + + + + + + + + + + + + + + + + + + O % m &.S k D m e a Z T T L D Z 9 % + + + @ w Z K x ; + + + + + + + + + + + + + + + + ",
"+ + + + + + + + + + + + + + + + + + + + + O % d Q k 5 , ; % 5 Z ! +.$./ c , + + + + O 1 b Z b < @ + + + + + + + + + + + + + + + ",
"+ + + + + + + + + + + + + + + + + + + + + O - m A - % > 9 s D Q '  .( ! k = + + + + + % y b z > @ + + + + + + + + + + + + + + + ",
"+ + + + + + + + + + + + + + + + + + + + + + 8 I w @ 9 Q ..#.Y v K Q P Z y = + + + + + + 3 i e 5 % + + + + + + + + + + + + + + + ",
"+ + + + + + + + + + + + + + + + + + @ @ + = c G = @ l | b h F I ' Y w ; % + + + + + + + % < q 1 % + + + + + + + + + + + + + + + ",
"+ + + + + + + + + + + + + + + + + % 6 7 @ 5 I i + @ ; 3 % 5 ^ &./ a * + + + + + + + + + + = , % + + + + + + + + + + + + + + + + ",
"+ + + + + + + + + + + + + + + + + = l N 3 n Y > o + + + + = h L m 1 + + + + + + + + + + + + @ + + + + + + + + + + + + + + + + + ",
"+ + + + + + + + + + + + + + + + + - m Y K | m # + + + + + % 3 y 0 = + + + + + + + + + + + + + + + + + + + + + + + + + + + + + + ",
"+ + + + + + + + + + + + + + + + + - A Y Y ( y @ + + + + + % y G w @ + + + + + + + + + + + + + + + + + + + + + + + + + + + + + + ",
"+ + + + + + + + + + + + + + + + + % a L D C 8 @ + + + + + , b Y a % + + + + + + + + + + + + + + + + + + + + + + + + + + + + + + ",
"+ + + + + + + + + + + + + + + + + @ 4 m N w % + + + + + @ w U Y a % + + + + + + + + + + + + + + + + + + + + + + + + + + + + + + ",
"+ + + + + + + + + + + + + + + + + + = d b 7 + + + + + % w E $.&.Q a = + + + + + + + + + + + + + + + + + + + + + + + + + + + + + ",
"+ + + + + + + + + + + + + + + + + + @ = : = + + + + @ 9 _  .U Q _ / w + + + + + + + + + + + + + + + + + + + + + + + + + + + + + ",
"+ + + + + + + + + + + + + + + + + + + + + + + + + + 1 ^ =.C w k O.t.D = O + + + + + + + + + + + + + + + + + + + + + + + + + + + ",
"+ + + + + + + + + + + + + + + + + + + + + + + + + + - x D 9 @ ; E 2.v * + + + + + + + + + + + + + + + + + + + + + + + + + + + + ",
"+ + + + + + + + + + + + + + + + + + + + + + + + + + + - i 8 + - R _ y * + + + + + + + + + + + + + + + + + + + + + + + + + + + + ",
"+ + + + + + + + + + + + + + + + + + + + + + + + + + + & y w @ u ^ a % + + + + + + + + + + + + + + + + + + + + + + + + + + + + + ",
"+ + + + + + + + + + + + + + + + + + + + + + + + + + + % e a 3 H E 3 @ + + + + + + + + + + + + + + + + + + + + + + + + + + + + + ",
"+ + + + + + + + + + + + + + + + + + + + + + + + + + + = l L Y | / G r = @ + + + + + + + + + + + + + + + + + + + + + + + + + + + ",
"+ + + + + + + + + + + + + + + + + + + + + + + + + + o 7 / { [ U K Q U y % + + + + + + + + + + + + + + + + + + + + + + + + + + + ",
"+ + + + + + + + + + + + + + + + + + + + + + + + + + + 1 D Q P D Q / Y a % + + + + + + + + + + + + + + + + + + + + + + + + + + + ",
"+ + + + + + + + + + + + + + + + + + + + + + + + + + + % h ~ L A W Q L q @ + + + + + + + + + + + + + + + + + + + + + + + + + + + ",
"+ + + + + + + + + + + + + + + + + + + + + + + + + + + @ h _ k 8 b L b 1 + + + + + + + + + + + + + + + + + + + + + + + + + + + + ",
"+ + + + + + + + + + + + + + + + + + + + + + + + + + + @ g E 5 = w p 5 % + + + + + + + + + + + + + + + + + + + + + + + + + + + + ",
"+ + + + + + + + + + + + + + + + + + + + + + + + + + + % n Y , - u d , + + + + + + + + + + + + + + + + + + + + + + + + + + + + + ",
"+ + + + + + + + + + + + + + + + + + + + + + + + + + o = A G - + - 2 = + + o o o o + + + + + + + + + + + + + o o o o o o o + + + ",
"+ + + + + + + + + + + + + + + + + + + + + + + + + + o , L m % + + + + o X X . X o o + + + + + o o o + + + o o o o o o o o o o o ",
"+ + + + + + + + + + + + + + + + + + + + + + + + + + o 3 Y z @ + + + o o X . X o + + + + + o X X X o o o o o o o o o o o o o o o ",
"+ + + + + + + + + + + + + + + + + + + + + + + + + + + 9 / h @ + + + o X . . . X o X X X X X X X X X X X X X X o o o o o o o o o ",
"+ + + + + + + + + + + + + + + + + + + + + + + + + O = F &.c % + + + + o X X . . . . X X X . . . o o o o X X X X X o o o o o o + ",
"+ + + + + + + + + + + + + + + + + + + + + + + + + % 3 L ~ y % + + + + + o . . X o + + + o X . X o + o o o o o o o o o o + + + + ",
"+ + + + + + + + + + + + + + + + + + + + + + + @ 3 F @.7.2.m = + + + + + o . . X X + + + X X X o + + + + + + + o o o + + + + + + ",
"+ + + + + + + + + + + + + + + + + + + + + + % 5 A | -.2...d * + + + + + + o X . . X o X X o + + + + + + + + + + + + + + + + + + ",
"+ + + + + + + + + + + + + + + + + + + + + + % 7 x m l 9 , % + + + + + + + + o .     . X o + + + + + + + + + + + + + + + + + + + ",
"+ + + + + + + + + + + + + + + + + + + + + + + @ * - & + + + + + + + + + + o o .     . X + + + + + + + + + + + + + + + + + + + + ",
"+ + + + + + + + + + + + + + + + + + + + + + + + + + + + + + + + + o o X X X X X X X X o + + + + + + + + + + + + + + + + + + + + ",
"+ + + + + + + + + + + + + + + + + + + + + + + + + + + + + + o X . .   . X o o + + + + + + + + + + + + + + + + + + + + + + + + + ",
"+ + + + + + + + + + + + + + + + + + + + + + + + + + + + + o .       . o + + + + + + + + + + + + + + + + + + + + + + + + + + + + ",
"+ + + + + + + + + + + + + + + + + + + + + + + + + + + + + o X . . X o + + + + + + + + + + + + + + + + + + + + + + + + + + + + + ",
"+ + + + + + + + + + + + + + + + + + + + + + + + + + + + + o o o o + + + + + + + + + + + + + + + + + + + + + + + + + + + + + + + "
};
