/* XPM */
static char *_78aa3d8af7c425bb79a402f2bd033a12aNT1iKiIEzhdA14[] = {
/* columns rows colors chars-per-pixel */
"64 64 200 2 ",
"   c #000000",
".  c #0C0303",
"X  c #0D0806",
"o  c #050608",
"O  c #0B0608",
"+  c #070A0C",
"@  c #0A0B0D",
"#  c #140505",
"$  c #1C0707",
"%  c #120A05",
"&  c #1C0F06",
"*  c #180708",
"=  c #130C0B",
"-  c #1C0B0A",
";  c #1E130A",
":  c #0D0D11",
">  c #130D11",
",  c #1C0E12",
"<  c #0F1015",
"1  c #0E161A",
"2  c #121115",
"3  c #1C1214",
"4  c #14141B",
"5  c #1A141B",
"6  c #13191E",
"7  c #1D1C1D",
"8  c #210B07",
"9  c #240A0A",
"0  c #2C0B0B",
"q  c #330D0D",
"w  c #3B0E0E",
"e  c #26100D",
"r  c #2D1609",
"t  c #2E190B",
"y  c #331B0C",
"u  c #391B0D",
"i  c #230E14",
"p  c #290E10",
"a  c #330F10",
"s  c #390F10",
"d  c #221216",
"f  c #291717",
"g  c #24151B",
"h  c #241C1D",
"j  c #341415",
"k  c #3D1111",
"l  c #331D12",
"z  c #3D1D13",
"x  c #37161C",
"c  c #3D2311",
"v  c #352318",
"b  c #372418",
"n  c #3E2A1E",
"m  c #141721",
"M  c #161A23",
"N  c #1A1B23",
"B  c #151C29",
"V  c #1A1D29",
"C  c #2D1C25",
"Z  c #261E2A",
"A  c #172228",
"S  c #1B232D",
"D  c #1D2534",
"F  c #1E2932",
"G  c #1D2838",
"H  c #262627",
"J  c #362624",
"K  c #212C35",
"L  c #202B3C",
"P  c #283238",
"I  c #333333",
"U  c #3E3E3E",
"Y  c #410F0F",
"T  c #441111",
"R  c #4B1313",
"E  c #441C13",
"W  c #4B1C15",
"Q  c #44171A",
"!  c #4B161A",
"~  c #4E191B",
"^  c #541515",
"/  c #5B1616",
"(  c #5A1817",
")  c #551818",
"_  c #5E1818",
"`  c #641718",
"'  c #631A19",
"]  c #6C1D1D",
"[  c #721F1F",
"{  c #422613",
"}  c #462914",
"|  c #462618",
" . c #4F291B",
".. c #512D1A",
"X. c #52321A",
"o. c #66281E",
"O. c #5B1E24",
"+. c #641D27",
"@. c #791521",
"#. c #562923",
"$. c #4F3626",
"%. c #573A2D",
"&. c #5F3930",
"*. c #652623",
"=. c #682925",
"-. c #742121",
";. c #792323",
":. c #782C27",
">. c #61352B",
",. c #743025",
"<. c #6A4936",
"1. c #7A4433",
"2. c #774A37",
"3. c #7F553C",
"4. c #263642",
"5. c #263944",
"6. c #293B45",
"7. c #2B3E49",
"8. c #2C4045",
"9. c #2E444D",
"0. c #344747",
"q. c #31434D",
"w. c #334650",
"e. c #354A53",
"r. c #3C5253",
"t. c #5C534A",
"y. c #505050",
"u. c #6D5646",
"i. c #735746",
"p. c #746752",
"a. c #496668",
"s. c #506E6E",
"d. c #6E6F70",
"f. c #801723",
"g. c #854638",
"h. c #944E3E",
"j. c #8B513B",
"k. c #81593F",
"l. c #8A4E42",
"z. c #895A42",
"x. c #9A5543",
"c. c #876247",
"v. c #976249",
"b. c #9E6854",
"n. c #A56F4E",
"m. c #B3684D",
"M. c #A66F52",
"N. c #BC6F53",
"B. c #B47252",
"V. c #8C7C63",
"C. c #8A7870",
"Z. c #AA7D62",
"A. c #B87E69",
"S. c #C87C5A",
"D. c #97846C",
"F. c #948873",
"G. c #B68668",
"H. c #AE8D72",
"J. c #B89C79",
"K. c #D38A67",
"L. c #C19174",
"P. c #CC9D75",
"I. c #DC9670",
"U. c #DCA77E",
"Y. c #E7A578",
"T. c #909090",
"R. c #9E9FA0",
"E. c #A5A5A4",
"W. c #B3AEA7",
"Q. c #C6AE8D",
"!. c #CFB996",
"~. c #D3B491",
"^. c #E9AE84",
"/. c #F2B383",
"(. c #F5BA8A",
"). c #E2B996",
"_. c #D7BBA2",
"`. c #FCC593",
"'. c #F9C99A",
"]. c #D9C6AD",
"[. c #C9C2B6",
"{. c #ECC8A2",
"}. c #F0CBA3",
"|. c #FFD4A4",
" X c #FFDBAC",
".X c #FBD7B1",
"XX c #FEE2B5",
"oX c #FDE3BC",
"OX c #CDCDCD",
"+X c #D8D9D9",
"@X c #E0DFDC",
"#X c #FFE0C7",
"$X c #F9EAD4",
"%X c #FFF5DE",
"&X c #E5E4E2",
"*X c #EBEAE9",
"=X c #FDF4E3",
"-X c #FFF9E6",
";X c #FEFBF5",
":X c #FEFFFF",
/* pixels */
"                                                                                                                                ",
"                                                                                                                                ",
"                                                                                                                                ",
"                                                                                                                                ",
"                                                                                                                                ",
"                                                          1 6.r.r.r.0.@                                                         ",
"                                                      o 6 4.e.a.a.s.s.r.8.6                                                     ",
"                                                      6 6.6.9.9.w.a.s.s.a.9.+                                                   ",
"                                                    + A K S 4.5.7.6.r.r.6.5.@                                                   ",
"                                                    M F 6 M B S K N 6 h 4 S +                                                   ",
"                                                    o 2 6 B B h <.+.O.g.O.i o                                                   ",
"                                                      o : M m 7 $.! f.x.#., o                                                   ",
"                                                        o 6 6 < : i @.g.h 2 o                                                   ",
"                                                      + 2 M B B 2 5 x J 5 m o                                                   ",
"                                            . . . . = 5 6 6 B B B B B B B B o                                                   ",
"                                          . q T ^ / / Q 3 2 4 M M 6 2 M M 4 o                                                   ",
"                                        . q T ^ ] ;.;.] Q N K w.w.6.V 9.w.K 2 X                                                 ",
"                                        0 T ^ ' ] ] ] ` ! D 6.e.e.q.L q.e.5.V j 0 .                                             ",
"                                        0 T ^ ` g.b.l.,.! D 6.e.e.q.L w.e.6.S ! T $                                             ",
"                                      $ w T ^ l.L.A.h.>.C D 6.w.w.7.L q.w.5.D Q Y $                                             ",
"                                      0 ~ 1.v.Z.b.#.j g V D 4.6.e.q.S q.e.6.S x T q .                     @ 2 o                 ",
"                                      0 1.v.1.=.W 3 < 2 6 N D 7.q.6.6 7.9.K 6 &.#.k *                 4 7 E.OXI                 ",
"                                      . j E E u u 3 : 2 2 2 4 M M M 2 M M 2 2 %.2. .#             7 U OX+X;X&XI                 ",
"                                        % y } c y % + 2 6 V D G 6.P 6 4.G 4 % 8 e %         + H y.+X*X;X@X].t.o                 ",
"                                        & y { t %   + 2 2 M B S K F 4 F S 2 % & .       7 t.T.*X*X=XW.F.H 2 o                   ",
"                                      % t { X.;     + 2 2 2 4 B S S S S M 2 % r %   U d.R.:X;X-X$XD.>                           ",
"                                      0 E o.o.9     + 2 2 6 V D F K F F D 4 & r t.d.[.-X$X#X_.V.p.O                             ",
"                                    . R ' -.R *   # = 2 2 2 6 B S S S S S J C.D.].%X.X`.P.k.$.                                  ",
"                                      8 z E X     9 q k ~ j 2 4 N N H I E._.oXoX'./.c.n f                                       ",
"                                      % t } &     9 T / ' ( ) *.=.2.Q.!.oXXX(./.z.v =                                           ",
"                                      % r c } &   9 w R / ] :.x.).{.XXXX(.Y.2.b %                                               ",
"                                        % t } & * q w =.l.G.{.}. X'.I.K.g.,.W .                                                 ",
"                                        v <.<.d # &.i.H.XX X X'.K.N.:.;.' ' _ $                                                 ",
"                                      . k.L.Z.i.u.~.XX X|.^.S.m.o.' ] ] ' ^ _ | =                                               ",
"                                      . 3.n...J.oX|.|.U.B.h./ ^ ' ' ' ' ' T ( j.n                                               ",
"                                      l z.n...G.`.M.1.#.q ^ ^ k ` / R _ ' T ( j.n                                               ",
"                                X l z ..v.G.n v >.W 9 0 q R ^ k _ / w _ ' T / z =                                               ",
"                                %  . .z l J X o - q d d q w w q T ^ w _ ' T / $                                                 ",
"                                . y r %       : d d N N g a i X i R s / T q ! *                                                 ",
"                                            @ 2 6 6 B D Z f m o > k , Q s 9 g +                                                 ",
"                                            : 2 2 3 f Z V d : o > 0 > 5 a w T *                                                 ",
"                                            : < 3 R ] O.C :     X - > 0 w T T #                                                 ",
"                                          + : f R ' -.[ ~ @       @ > q T w 0 .                                                 ",
"                                          : 2 T / ] ;.] T o       @ : 9 q q 9 .                                                 ",
"                                          : 2 p ^ -.] R *         @ : $ 9 9 $ .                                                 ",
"                                        o : - 9 w R 0 .           + : $ $ 0 0 .                                                 ",
"                                        + > 0 R ' ^ $             o : > 0 q q #                                                 ",
"                                        - 0 ^ ] ;.0                 > > 0 w T *                                                 ",
"                                        w / ] ;.] $                 * 0 q T T *                                                 ",
"                                        9 ' ;.) 9                     $ q T T *                                                 ",
"                                      # 0 ] ] 9                       $ q T T *                                                 ",
"                                      $ 0 ] ' $                       $ q Y 9 .                                                 ",
"                                      $ q / q .                       $ q w .                                                   ",
"                                      0 ^ ^ #                         $ 0 w .                                                   ",
"                                    9 ) k 0 .                         0 9 9 X                                                   ",
"                                    9 0 q 0 .                         $ $ q w #                                                 ",
"                                    9 0 _ ] $                         $ $ 9 w 9 .                                               ",
"                                    9 0 R ^ *                         $ $ $ 0 q *                                               ",
"                                    # * * #                           . X X X X                                                 ",
"                                                                                                                                ",
"                                                                                                                                ",
"                                                                                                                                ",
"                                                                                                                                ",
"                                                                                                                                "
};
