/* XPM */
static char *_3cc652f90c24d989d9aaff64a215477iASxk9stCkUpuCrN[] = {
/* columns rows colors chars-per-pixel */
"64 64 188 2 ",
"   c #020202",
".  c #0B0205",
"X  c #0C0508",
"o  c #0C0C0C",
"O  c #110207",
"+  c #160208",
"@  c #1B020A",
"#  c #0F1010",
"$  c #141515",
"%  c #1F1619",
"&  c #1B1C1C",
"*  c #23020D",
"=  c #29020E",
"-  c #2E0210",
";  c #340212",
":  c #3D0215",
">  c #3F1F27",
",  c #212121",
"<  c #2C2D2D",
"1  c #3A2F30",
"2  c #343535",
"3  c #373838",
"4  c #440217",
"5  c #470218",
"6  c #4C0219",
"7  c #54031C",
"8  c #5D031F",
"9  c #640221",
"0  c #6B0223",
"q  c #740326",
"w  c #7B0329",
"e  c #7A0B2D",
"r  c #611C2B",
"t  c #7D1D32",
"y  c #713E45",
"u  c #424343",
"i  c #494545",
"p  c #474848",
"a  c #494A4A",
"s  c #4E504F",
"d  c #534F50",
"f  c #515151",
"g  c #595A5A",
"h  c #655D5D",
"j  c #646464",
"k  c #666868",
"l  c gray42",
"z  c #737373",
"x  c #787A7A",
"c  c #84032B",
"v  c #8D032E",
"b  c #800A2E",
"n  c #90032F",
"m  c #8D0932",
"M  c #910631",
"N  c #940C36",
"B  c #960E38",
"V  c #8D1734",
"C  c #961734",
"Z  c #971039",
"A  c #99143D",
"S  c #991838",
"D  c #9D1B42",
"F  c #A01D44",
"G  c #A22146",
"H  c #A42549",
"J  c #A6294D",
"K  c #B22746",
"L  c #B12C4D",
"P  c #A82E50",
"I  c #AD3354",
"U  c #B03050",
"Y  c #B13A5A",
"T  c #CB374B",
"R  c #D53246",
"E  c #D4374B",
"W  c #C03651",
"Q  c #D63E51",
"!  c #A64C58",
"~  c #B7415E",
"^  c #B64461",
"/  c #BA4763",
"(  c #BB4B66",
")  c #BD506B",
"_  c #8C6163",
"`  c #807F7F",
"'  c #B07C7E",
"]  c #C34957",
"[  c #D04357",
"{  c #F5494F",
"}  c #E94753",
"|  c #F54B51",
" . c #F84F54",
".. c #EC535D",
"X. c #F75056",
"o. c #F85257",
"O. c #F6545A",
"+. c #F9555A",
"@. c #F6595F",
"#. c #FA595E",
"$. c #D24C60",
"%. c #C2546D",
"&. c #C95668",
"*. c #D55163",
"=. c #C35871",
"-. c #C95F75",
";. c #E75B64",
":. c #F65D63",
">. c #FB5D62",
",. c #CC647A",
"<. c #D16579",
"1. c #D86879",
"2. c #EA646E",
"3. c #F76267",
"4. c #FD6166",
"5. c #F76469",
"6. c #FF666B",
"7. c #F76B6F",
"8. c #FA696E",
"9. c #EA6F79",
"0. c #F66D73",
"q. c #FC6D72",
"w. c #E4797C",
"e. c #F77176",
"r. c #FB7176",
"t. c #F4767D",
"y. c #FB757A",
"u. c #FB797E",
"i. c #D86F80",
"p. c #D67284",
"a. c #DB7B8B",
"s. c #E17886",
"d. c #E57B88",
"f. c #EA7F8A",
"g. c #F67E84",
"h. c #FB7D81",
"j. c gray53",
"k. c #8A8484",
"l. c #929191",
"z. c #9B9595",
"x. c #B48C8D",
"c. c #B39697",
"v. c #A3A0A0",
"b. c #ACA1A1",
"n. c #AEAAAB",
"m. c #B6B1B1",
"M. c #EE848B",
"N. c #FA8286",
"B. c #F5848B",
"V. c #F9858A",
"C. c #F3888F",
"Z. c #FA8A8E",
"A. c #E38491",
"S. c #EA8D97",
"D. c #F48A91",
"F. c #FA8F93",
"G. c #EF9098",
"H. c #FC9296",
"J. c #FD979A",
"K. c #FB999D",
"L. c #F49CA2",
"P. c #FC9EA1",
"I. c #D0ACAE",
"U. c #C9B7B8",
"Y. c #C2B9B9",
"T. c #D5BEBF",
"R. c #E4A7A9",
"E. c #F9A6A8",
"W. c #FCA9AC",
"Q. c #E3AFB0",
"!. c #F3AFB1",
"~. c #E7BBBC",
"^. c #FFB2B4",
"/. c #F4B5B8",
"(. c #FCB7B9",
"). c #FEB9BB",
"_. c #FFBFC1",
"`. c #D3C4C5",
"'. c #D9C8C8",
"]. c #E5C5C6",
"[. c #ECC3C4",
"{. c #E3CDCE",
"}. c #F2C4C6",
"|. c #FFC0C2",
" X c #EBD2D3",
".X c #F3D7D8",
"XX c #F6D9DA",
"oX c #FADBDC",
/* pixels */
"                                                                                                                                ",
"                                                                                                                                ",
"                                                                                                                                ",
"                                                                                                                                ",
"                                                                                                                                ",
"                                                                                                                                ",
"                                                                                                                                ",
"                                                                                                                                ",
"                                                                                                                                ",
"                                                                                                                                ",
"                                    o < s j x x k a & X                       o < g z x z g u & o                               ",
"                                $ p l.Y.'. XXXoX X'.n.j ,                 o 3 j.Y.{.XXoX.X{.`.n.z < X                           ",
"                              & ` `.}.W.F.u.0.7.u.H.(.].v.u X           & l Y.}.W.V.0.7.e.N.K.(.].m.f o                         ",
"                            , z.[.H.5.o.| | { { | | @.h.(.T.j o       < l.].K.8.o.| { { { |  .O.y.W.T.g X                       ",
"                          # k.!.0.| { { | | | | | | |  .3.J.].z $   2 b./.u.O. .| | | | | | | { | O.Z.I.p                       ",
"                          d R.3.{ | | | | | | | |  .o.o.o.@.V.~.z 3 b.W.8.o.o.o.o. .| | | | | | | { | g.c.&                     ",
"                        $ x.8.{ | | 5.N.u.O.|  .o.o.o.+.+.+.+.u.Q.U.E.6.+.+.+.o.o.o. .| | | | | | | { | M.h                     ",
"                        i w.| | { @.P.).^.u.| o.o.+.+.+.+.@.@.@.u.K.6.@.@.@.+.+.+.o.o.o. .| | | | | | { >.' $                   ",
"                      X _ :.{ | { 8.(.|.|.Z. .o.+.+.+.@.@.>.>.>.>.4.>.>.>.>.@.+.+.+.+.o.o. .| | | | | | | w.1                   ",
"                      % &. .| | { :.W.|.).h.o.+.+.@.@.>.>.>.>.>.>.>.>.>.>.>.>.@.@.@.+.+.o. .| | | | | | { :.y                   ",
"                      > ;.{ | | | | e.J.Z.>.+.+.@.>.>.>.>.4.4.4.4.4.4.4.4.>.>.>.>.@.@.+.+.o. .| | | | | |  .! X                 ",
"                      r ..{ | | | |  .O.+.+.+.@.>.>.>.4.4.4.4.6.6.6.6.6.4.4.4.>.>.>.@.@.+.o.o. .| | { | | | ] *                 ",
"                      t O.{ | | | |  .o.o.+.@.@.>.>.4.4.6.6.6.6.6.6.6.6.6.6.4.4.4.>.>.@.+.+.o.o.| | { { | | T ;                 ",
"                      V X.| | | | |  .o.+.+.@.>.>.4.4.6.6.6.6.6.6.6.6.6.6.6.6.6.4.4.>.>.@.+.+.o. .| | { | | R 4                 ",
"                    . C | | | | |  .o.o.+.@.>.>.4.4.6.6.6.6.6.6.6.6.6.6.6.6.6.6.6.4.>.>.@.@.+.o.o.| | | | | R 6                 ",
"                    + S | | | | |  .o.+.+.@.>.>.4.6.6.6.6.6.6.6.6.6.6.6.6.6.6.6.6.4.4.>.>.@.+.+.o. .| | | | R 7                 ",
"                    + C } | | | | o.o.+.@.>.>.4.4.6.6.6.6.6.6.6.6.6.6.6.6.6.6.6.6.6.4.4.>.>.@.+.o. .| | | | E 7                 ",
"                    O V } | | |  .o.+.+.@.>.>.4.6.6.6.6.6.6.6.6.6.6.6.6.6.6.6.6.6.6.4.4.>.>.@.+.o.o.| | | | T 6                 ",
"                    . e Q | | |  .o.+.+.>.>.4.4.6.6.6.6.6.6.6.6.6.6.6.6.6.6.6.6.6.6.6.4.>.>.@.+.+.o. .| | o.K 4                 ",
"                      9 W  .| |  .o.+.@.>.>.4.6.6.6.6.6.6.6.6.6.6.6.6.6.6.6.6.6.6.6.6.4.4.>.>.+.+.o. .| | ..S ;                 ",
"                      4 G ..| | o.o.+.@.>.>.4.6.6.6.6.6.6.6.6.6.6.6.6.6.6.6.6.6.6.6.6.6.4.>.>.@.+.o. .|  .[ b +                 ",
"                      = m $.o.| o.o.+.@.>.>.4.6.6.6.6.6.6.6.6.6.6.6.6.6.6.6.6.6.6.6.6.6.4.>.>.@.+.o. .| ..L 9 .                 ",
"                      O 0 L ;. .o.+.+.@.>.>.4.6.6.6.6.6.6.6.6.6.6.6.6.6.6.6.6.6.6.6.6.6.4.>.>.@.+.o. .X.*.N 4                   ",
"                        4 N *.@.o.o.+.@.>.>.4.6.6.6.6.6.6.6.6.6.6.6.6.6.6.6.6.6.6.6.6.6.4.>.>.@.+.o.o.2.U w @                   ",
"                        + w H 2.+.o.+.@.>.>.4.6.6.6.6.6.6.6.6.6.6.6.6.6.6.6.6.6.6.6.6.6.4.>.>.@.+.o.3.&.N 6                     ",
"                          5 m ~ 0.+.+.@.>.>.4.6.6.6.6.6.6.6.6.6.6.6.6.6.6.6.6.6.q.h.y.6.4.>.>.+.+.>.1.F w *                     ",
"                          + 0 B &.0.+.+.>.>.4.4.6.6.6.6.6.6.6.6.6.6.6.6.6.6.6.q.J.^.W.u.>.>.#.+.>.9.I v 5                       ",
"                            ; c D <.0.@.@.>.>.4.6.6.6.6.6.6.6.6.6.6.6.6.6.6.6.y.(.|._.H.>.>.@.>.t./ M 0 +                       ",
"                            . 7 v G 1.r.>.>.>.4.4.6.6.6.6.6.6.6.6.6.6.6.6.6.6.y.(.|._.H.>.>.4.g.%.N w -                         ",
"                              + 9 v J s.r.>.>.>.4.6.6.6.6.6.6.6.6.6.6.6.6.6.6.q.J.^.W.y.>.>.g.-.A c 4 .                         ",
"                                * 0 v I d.q.>.>.4.4.6.6.6.6.6.6.6.6.6.6.6.6.6.6.q.h.y.>.>.h.<.A v 6 .                           ",
"                                  - w M Y f.q.>.>.4.4.6.6.6.6.6.6.6.6.6.6.6.6.6.4.4.>.>.t.<.D v 8 O                             ",
"                                    : c M ^ M.8.>.>.4.4.6.6.6.6.6.6.6.6.6.6.6.4.4.>.>.u.<.D v 0 @                               ",
"                                    . 4 c N ( B.8.>.>.4.4.4.6.6.6.6.6.6.6.4.4.4.>.>.u.i.D v q =                                 ",
"                                      . 7 v N =.D.8.>.>.4.4.4.4.4.4.4.4.4.4.>.>.>.y.s.H n w -                                   ",
"                                        + 9 v Z ,.Z.4.>.>.>.>.4.4.4.4.4.>.>.>.>.r.d.P v c :                                     ",
"                                          @ 0 v A <.V.4.@.>.>.>.>.>.>.>.>.>.>.0.f.I M c 5 .                                     ",
"                                            = q n D p.N.>.@.@.>.>.>.>.@.@.@.0.M.~ M v 7 .                                       ",
"                                              ; w v G a.N.>.+.@.@.@.@.+.+.8.D.( M v 9 +                                         ",
"                                              . : c M J A.N.@.+.+.+.+.+.4.C.%.N v 0 *                                           ",
"                                                . 6 v M I S.u.+.o.o.o.>.C.-.B v q =                                             ",
"                                                  O 8 v M Y S.r.o.o.@.N.,.A v c ;                                               ",
"                                                    + 9 v M / G.y.8.V.p.D v c 5 .                                               ",
"                                                      * q v N ) L.L.a.G v v 6 .                                                 ",
"                                                        ; w v N ^ =.H v v 8 O                                                   ",
"                                                          : c v M N v v 0 @                                                     ",
"                                                          . 4 c v v v q =                                                       ",
"                                                            . 7 v n w -                                                         ",
"                                                              + 7 0 : .                                                         ",
"                                                                . +                                                             ",
"                                                                                                                                ",
"                                                                                                                                ",
"                                                                                                                                ",
"                                                                                                                                "
};
