/* XPM */
static char *_be44a4d15fd4e28f8fad2540cb1d57dEuMKyizuvxIeAper[] = {
/* columns rows colors chars-per-pixel */
"64 64 164 2 ",
"   c black",
".  c #020101",
"X  c #161107",
"o  c #221B0C",
"O  c #211A0C",
"+  c #0F0C04",
"@  c #1A1509",
"#  c #846931",
"$  c #B89347",
"%  c #B89247",
"&  c #B59045",
"*  c #6A5423",
"=  c #0D0A02",
"-  c #100D04",
";  c #6F5927",
":  c #DBB250",
">  c #FCCF5A",
",  c #FCCF5E",
"<  c #FACE5F",
"1  c #CBA848",
"2  c #59491C",
"3  c #060500",
"4  c #090702",
"5  c #5D4A21",
"6  c #D0A84C",
"7  c #F6C747",
"8  c #F5C539",
"9  c #FBCF4B",
"0  c #FFD85A",
"q  c #FDD657",
"w  c #9B802F",
"e  c #0F0B01",
"r  c #080602",
"t  c #4A3B1A",
"y  c #C49E48",
"u  c #F9CC52",
"i  c #EFC344",
"p  c #E5B842",
"a  c #F4C747",
"s  c #FFD652",
"d  c #B89735",
"f  c #372C12",
"g  c #020100",
"h  c #231B0C",
"j  c #B18D43",
"k  c #F7C954",
"l  c #FED351",
"z  c #F9D878",
"x  c #F5DA8D",
"c  c #FBD66C",
"v  c #FED24C",
"b  c #FED450",
"n  c #F3CC52",
"m  c #92772C",
"M  c #2A200D",
"N  c #C69E4B",
"B  c #F4C44C",
"V  c #F4D06E",
"C  c #F0CE73",
"Z  c #E7BF58",
"A  c #F4D37B",
"S  c #F2CA5E",
"D  c #F5C740",
"F  c #FFD54E",
"G  c #A6882E",
"H  c #0A0902",
"J  c #29200D",
"K  c #C49C49",
"L  c #ECBB48",
"P  c #EFCE7B",
"I  c #E8C260",
"U  c #D9A418",
"Y  c #EFCE77",
"T  c #EBC568",
"R  c #EFBF34",
"E  c #FDD247",
"W  c #A4862B",
"Q  c #0A0802",
"!  c #EDBB48",
"~  c #EFCF7B",
"^  c #E8C361",
"/  c #D9A51A",
"(  c #EBC667",
")  c #EFBF33",
"_  c #291F0C",
"`  c #BF9940",
"'  c #E9B941",
"]  c #E9C260",
"[  c #D9A419",
"{  c #EFCE76",
"}  c #EBC567",
"|  c #ECBB2E",
" . c #F8CC41",
".. c #A18324",
"X. c #271E07",
"o. c #B89324",
"O. c #EAB930",
"+. c #F3D071",
"@. c #EECA6E",
"#. c #E1B447",
"$. c #F2D17B",
"%. c #EFC763",
"&. c #E3B124",
"*. c #E3B62B",
"=. c #947516",
"-. c #0A0700",
";. c #211904",
":. c #AA881E",
">. c #F0C235",
",. c #FCD255",
"<. c #F9D87C",
"1. c #F5D98D",
"2. c #FAD876",
"3. c #F9CE4E",
"4. c #DEAF29",
"5. c #BE920F",
"6. c #745706",
"7. c #080600",
"8. c #0D0901",
"9. c #5E4A11",
"0. c #CAA32A",
"q. c #F7CA41",
"w. c #F1C652",
"e. c #E9C059",
"r. c #F3C84D",
"t. c #F5C73C",
"y. c #E2B52C",
"u. c #9E7B10",
"i. c #372902",
"p. c #030200",
"a. c #110D03",
"s. c #6C5614",
"d. c #C39B24",
"f. c #E9B930",
"g. c #EFBE31",
"h. c #E2B32E",
"j. c #D3A61F",
"k. c #CEA118",
"l. c #80630D",
"z. c #0E0B01",
"x. c #151001",
"c. c #6A5007",
"v. c #C49A21",
"b. c #E3B631",
"n. c #CC9F1B",
"m. c #B98C05",
"M. c #9D7705",
"N. c #4E3B06",
"B. c #070501",
"V. c #1E1602",
"C. c #765806",
"Z. c #9D7609",
"A. c #9B7405",
"S. c #967103",
"D. c #5D4503",
"F. c #120D02",
"G. c #010000",
"H. c #030201",
"J. c #1F1600",
"K. c #312200",
"L. c #312300",
"P. c #302200",
"I. c #150F01",
"U. c white",
/* pixels */
"                                                                                                                                ",
"                                                                                                                                ",
"                                                                                                                                ",
"                                                                                                                                ",
"                                                                                                                                ",
"                                                                                                                                ",
"                                                                                                                                ",
"                                                                                                                                ",
"                                                                                                                                ",
"                                                                                                                                ",
"                                                                                                                                ",
"                                                                                                                                ",
"                                                                                                                                ",
"                                                                                                                                ",
"                                                                                                                                ",
"                                                                                                                                ",
"                                                                                                                                ",
"                                                                                                                                ",
"                                                                                                                                ",
"                                                                                                                                ",
"                                                                                                                                ",
"                                                                                                                                ",
"                                                                                                                                ",
"                                                                                                                                ",
"                                                                                                                                ",
"                                                        . X o o O +                                                             ",
"                                                        @ # $ % & * =                                                           ",
"                                                      - ; : > , < 1 2 3                                                         ",
"                                                    4 5 6 7 8 9 0 q w e                                                         ",
"                                                  r t y u i p a s s d f g                                                       ",
"                                                  h j k l z x c v b n m 4                                                       ",
"                                                  M N B V C Z A S D F G H                                                       ",
"                                                  J K L P I U Y T R E W Q                                                       ",
"                                                  J K ! ~ ^ / Y ( ) E W Q                                                       ",
"                                                  _ ` ' ~ ] [ { } |  ...Q                                                       ",
"                                                  X.o.O.+.@.#.$.%.&.*.=.-.                                                      ",
"                                                  ;.:.>.,.<.1.2.3.4.5.6.7.                                                      ",
"                                                  8.9.0.q.w.e.r.t.y.u.i.p.                                                      ",
"                                                    a.s.d.f.g.h.j.k.l.z.                                                        ",
"                                                      x.c.v.b.n.m.M.N.B.                                                        ",
"                                                        V.C.Z.A.S.D.F.G.                                                        ",
"                                                        H.J.K.L.P.I.                                                            ",
"                                                                                                                                ",
"                                                                                                                                ",
"                                                                                                                                ",
"                                                                                                                                ",
"                                                                                                                                ",
"                                                                                                                                ",
"                                                                                                                                ",
"                                                                                                                                ",
"                                                                                                                                ",
"                                                                                                                                ",
"                                                                                                                                ",
"                                                                                                                                ",
"                                                                                                                                ",
"                                                                                                                                ",
"                                                                                                                                ",
"                                                                                                                                ",
"                                                                                                                                ",
"                                                                                                                                ",
"                                                                                                                                ",
"                                                                                                                                ",
"                                                                                                                                ",
"                                                                                                                                "
};
