/* XPM */
static char *_174e4a8bce14c12df265c4b746a945dz09IMu3AX2zwehjZ[] = {
/* columns rows colors chars-per-pixel */
"64 64 152 2 ",
"   c #0F0F0F",
".  c #111111",
"X  c #191919",
"o  c #232323",
"O  c #2B2B2B",
"+  c #313131",
"@  c #3C3C3C",
"#  c #5C3D23",
"$  c #5F4126",
"%  c #43413F",
"&  c #4D453D",
"*  c #624327",
"=  c #64472A",
"-  c #67482A",
";  c #6A4A2B",
":  c #754E2D",
">  c #784F2E",
",  c #74512F",
"<  c #79512F",
"1  c #6B4D33",
"2  c #614E3E",
"3  c #6A4F39",
"4  c #754F31",
"5  c #6C5034",
"6  c #6E533B",
"7  c #745334",
"8  c #7C5432",
"9  c #7F5835",
"0  c #72573D",
"q  c #7A573A",
"w  c #75593F",
"e  c #7E5A3A",
"r  c #444444",
"t  c #494644",
"y  c #4A4846",
"u  c #4C4C4C",
"i  c #504740",
"p  c #514841",
"a  c #534F4B",
"s  c #55504B",
"d  c #5B5249",
"f  c #4F4F50",
"g  c #535353",
"h  c #575858",
"j  c #5B5B5B",
"k  c #645141",
"l  c #6A5745",
"z  c #6F5947",
"x  c #615448",
"c  c #775B40",
"v  c #7F5D43",
"b  c #625B56",
"n  c #635E5A",
"m  c #77614F",
"M  c #7E634C",
"N  c #7A6350",
"B  c #646464",
"V  c #6C6C6C",
"C  c #747474",
"Z  c #7C7774",
"A  c #7B7B7B",
"S  c #805733",
"D  c #845B35",
"F  c #895F37",
"G  c #845E3B",
"H  c #895F38",
"J  c #8B6137",
"K  c #84603C",
"L  c #8C6239",
"P  c #826246",
"I  c #8B6541",
"U  c #8F6943",
"Y  c #83644B",
"T  c #88674B",
"R  c #85684F",
"E  c #89694D",
"W  c #906A44",
"Q  c #936E4A",
"!  c #96714E",
"~  c #816651",
"^  c #866953",
"/  c #8A6D54",
"(  c #866D5A",
")  c #896E59",
"_  c #8E7057",
"`  c #87705D",
"'  c #8C725D",
"]  c #947251",
"[  c #987656",
"{  c #93765B",
"}  c #9A7A5C",
"|  c #8B7462",
" . c #8E7A6B",
".. c #917964",
"X. c #987D64",
"o. c #947E6D",
"O. c #8B7D71",
"+. c #807C7A",
"@. c #96816F",
"#. c #9D846C",
"$. c #958273",
"%. c #998474",
"&. c #9C8877",
"*. c #958679",
"=. c #96897E",
"-. c #9B8B7D",
";. c #848484",
":. c #8A8A8A",
">. c #9C8E82",
",. c #9E9185",
"<. c #929292",
"1. c #989797",
"2. c #9C9C9C",
"3. c #A19285",
"4. c #A3958A",
"5. c #A5988E",
"6. c #A79B92",
"7. c #A99F96",
"8. c #A3A19F",
"9. c #ABA29A",
"0. c #A4A4A4",
"q. c #AEA7A2",
"w. c #ABA9A7",
"e. c #A7A8A8",
"r. c #ACACAC",
"t. c #B1AAA5",
"y. c #B1AEAC",
"u. c #B4B0AE",
"i. c #AFB0B0",
"p. c #B4B4B4",
"a. c #B8B6B4",
"s. c #B7B7B8",
"d. c #B7B8B8",
"f. c #B8B8B8",
"g. c #BBBBBB",
"h. c #BBBBBC",
"j. c #BCBCBC",
"k. c #BCBDBD",
"l. c #C0BFBF",
"z. c #C2C1C1",
"x. c #C3C3C3",
"c. c #C4C3C3",
"v. c #C6C5C5",
"b. c #C8C7C7",
"n. c #C8C8C8",
"m. c #CBCBCB",
"M. c #CCCBCB",
"N. c gray80",
"B. c #D5D5D5",
"V. c #DCDCDC",
"C. c #E4E4E4",
"Z. c #EFEFEF",
/* pixels */
". . . . . . . . . . . . . . . . .   . + j :.e.f.z.v.v.v.v.v.v.v.v.v.v.v.v.v.v.z.p.2.A u o .   . . . . . . . . . . . . . . . . . ",
". . . . . . . . . . . . . . .   X r ;.p.n.N.N.N.n.n.N.N.N.N.n.n.N.N.N.v.n.N.N.N.N.N.N.v.e.V + .   . . . . . . . . . . . . . . . ",
". . . . . . . . . . . . . . . @ <.k.z.N.N.n.n.N.v.z.N.N.N.N.n.n.n.N.n.v.n.N.N.n.v.n.N.N.v.v.f.C O   . . . . . . . . . . . . . . ",
". . . . . . . . . . . .   X V k.N.n.l.n.v.z.n.N.v.z.n.N.b.v.n.n.c.v.n.N.N.N.n.z.z.n.N.N.v.n.N.N.e.u . . . . . . . . . . . . . . ",
". . . . . . . . . . .   o :.n.N.N.n.z.n.z.v.N.N.N.n.v.k.p.f.z.k.k.k.f.z.v.n.n.b.n.N.N.N.n.N.N.N.N.z.V . . . . . . . . . . . . . ",
". . . . . . . . . .   O 2.N.N.N.N.n.v.n.n.N.N.n.z.k.k.p.r.p.f.k.f.p.e.p.k.k.z.v.n.N.N.n.n.n.v.v.n.N.n.C X . . . . . . . . . . . ",
". . . . . . . . . . o 2.N.n.b.n.n.N.v.n.N.n.k.p.f.k.f.s.d.p.p.p.f.p.p.f.k.f.f.p.k.v.n.n.n.v.v.v.z.v.N.n.C . . . . . . . . . . . ",
". . . . . . . . . X :.N.n.z.c.v.n.N.n.n.z.k.p.2.i.f.t.5.$.' / z N ' o.3.q.a.f.p.r.p.k.v.N.N.N.N.n.n.b.N.v.j . . . . . . . . . . ",
". . . . . . . . . B n.N.n.n.N.N.N.N.n.k.f.k.f.w.,.' e q Y 7 < # * < q ~ e ^ &.t.f.f.k.k.k.n.N.N.N.N.M.N.N.f.@   . . . . . . . . ",
". . . . . . .   + f.N.n.N.N.N.N.N.v.p.e.f.f.5.R Y Y : E 4.I J - , J ] 4.G : ( Y %.u.k.k.r.r.v.N.N.N.n.n.N.N.1.X . . . . . . . . ",
". . . . . . . . :.N.n.n.N.N.N.N.v.r.0.p.y...7 : ..%.< J W L L - , L L W D q 3.T : P 5.f.f.e.e.z.N.N.n.v.n.N.n.g   . . . . . . . ",
". . . . . .   r z.N.n.v.N.N.N.v.r.e.p.9.Y | R S L H < J L L L - , L L L D < L J S | ` $.a.h.r.e.z.N.N.n.v.n.N.0.o . . . . . . . ",
". . . . . . . ;.N.N.n.v.N.N.n.p.e.f.6.e : o.} J L D < J L L L - , L L F D < F L L #.^ : ..p.k.p.r.n.N.N.n.n.N.n.g   . . . . . . ",
". . . . .   O p.n.N.n.n.N.M.k.e.f.7.P 4 < 9 L L L D < J D D L - , L H 7 D < F L L F < < 7 o.a.k.r.p.N.N.N.n.N.N.:.. . . . . . . ",
". . . . .   j v.n.N.M.n.N.v.r.p.t.P =.{ S 9 L L L D < J D S L - , L F : S < F L L F 7 D %. .@.f.f.e.z.N.N.N.N.N.p.O   . . . . . ",
". . . . . . :.n.n.N.N.N.n.f.r.p.) : / Q F 9 J L L D < J J J L - , L J 7 D < F L L F 9 J ] P 7 4.k.p.p.N.N.N.N.N.v.g   . . . . . ",
". . . . . o e.b.n.N.N.N.v.f.f.&.: : F L J D J D J D < J L L L - ; D J H D < F L L F D L L D : v t.k.f.n.N.N.N.N.n.A . . . . . . ",
". . . .   + k.v.n.N.N.n.l.k.t.( Y < J L L D J D J D < J L L L - : J J L D < F J L J F L L D 7 ^ %.f.p.f.n.N.N.N.n.1.X . . . . . ",
". . . .   u n.v.n.n.b.k.p.f.o.` &.7 J L L J L L L D < J L J D * , L L L D < D S J J J L L D e 3.^ 9.f.p.z.n.N.N.n.e.o . . . . . ",
". . . .   j n.v.n.n.v.f.p.q.e 7 H 7 J L L L L L L D < J L J J = , L L L D < F J L L L L L D 7 H : ..f.f.c.n.N.N.n.p.O   . . . . ",
". . . .   B N.v.n.N.n.f.r.=.7 S D 8 J L L L L L J D < D J L L - , L J D S > F L L L L L L F 7 F 7 v t.p.p.n.N.n.n.f.+   . . . . ",
". . . .   B N.v.n.N.v.d.p. .>.W D 9 J L L L L J D 9 : D F J L - , L L J D : S F L L L L L F 8 F { *.4.h.p.v.n.v.n.f.+   . . . . ",
". . . .   B N.v.N.N.v.k.t.v { I D 9 L L L L L L L D < J L L J = ; J L L D < D J F D 9 D J J 9 F Q ) ' f.k.v.v.n.n.f.+   . . . . ",
". . . .   B N.n.N.N.z.s.4.: S D D 9 L L L L J J L D < J L L L = , L L L D < F L J F F D D H 9 D D < v u.k.v.v.n.n.f.+   . . . . ",
". . . .   B N.b.n.v.f.r.$.: D D D 9 J J L L F D L D < J L L L - 7 L L L D < F L J D L F F J 9 D D S 7 9.k.v.n.v.n.f.+   . . . . ",
". . . .   B N.b.n.n.p.r...) U S D S J D L L J J L D < J L L L - , L L L D < F L J D L D J J 9 D S ] ^ 4.k.z.N.v.n.f.+   . . . . ",
". . . .   B N.n.n.n.p.u.' =.[ S D S J F L L L L L D < J L L L - , L L L D < F L L J L J J J 9 D D #. .-.k.z.N.n.n.k.+   . . . . ",
". . . .   B N.n.n.n.p.y.Y D L F D S L L L F L L L D < J L L D - , F L L F < F L L L F L L L S F F L 7 %.k.z.N.N.n.f.+   . . . . ",
". . . .   B N.n.b.n.p.r.m 6 c c 0 0 c c w 0 c c c 0 3 w c w e - 7 q c c 0 3 w c c w 0 c c c 0 w c w 1 O.k.z.N.N.n.f.+   . . . . ",
". . . .   B N.n.v.b.p.e.j u u u u u u u u u u u u u u u u u x = 5 s u u u u u u u u u u u u u u u u u C k.z.N.N.N.f.+   . . . . ",
". . . .   B N.n.v.n.p.e.j u g V j u u u g V j u u u g V j u d = 5 a u B V u u u u B B u u u u B B u u C k.z.N.N.N.f.+   . . . . ",
". . . .   B N.n.v.n.p.e.j u <.V.v.j u u <.V.z.j u u <.V.z.h d = 5 a V V.B.A u u V V.B.C u u V V.N.C u C k.z.N.n.N.f.+   . . . . ",
". . . .   B N.n.n.n.p.r.j g r.V.V.V u g r.V.V.B u g p.V.B.B d = 5 a ;.C.B.1.u u ;.C.B.<.u u ;.C.B.<.u C f.z.n.n.N.k.+   . . . . ",
". . . .   B N.n.n.n.f.e.j u ;.k.2.g u u ;.k.2.g u u ;.k.2.g d = 5 a B r.p.V u u B r.p.V u u B p.p.V r C p.z.n.n.N.k.+   . . . . ",
". . . .   B N.n.N.n.p.e.j r u j g u u u u j g u u u u j g u d = 5 a u g j u u u u g j u u u u g j u r C f.z.b.n.N.k.+   . . . . ",
". . . .   B N.n.n.n.p.r.b & i i i p p p p t p p p p i i p p 6 - 7 2 p i i i p p p i i p p p p i i & & Z k.z.v.n.N.k.+   . . . . ",
". . . .   B N.n.n.v.p.y.P 8 D D D D D D D 9 D D D 8 4 D D D J - 7 H D D 9 : D D D D 9 D D D D D D D 7 o.k.z.v.n.N.k.+   . . . . ",
". . . .   B N.N.n.n.p.y.) -.Q L F J L L L J L L L D < J L L L - 7 L L L D < D L L L J L L L F J L } $.%.k.z.n.v.N.k.+   . . . . ",
". . . .   B N.N.N.n.p.y./ o.W L F J L L L L L L J S < J L L L - 7 L L L D : D J L L L J L L J J L ] | $.k.z.N.n.N.k.+   . . . . ",
". . . .   B N.N.N.n.f.p.T F L L J J L L L L L L L D < J L L J * : L L L D < F L L L L L L L J J L L D @.k.z.N.n.N.k.+   . . . . ",
". . . .   B N.N.N.n.k.p.) &.Q L J J D D L L L L L D < J L L L = 7 L L L D < F L L L L L L L J J J } $.%.f.z.N.N.N.k.+   . . . . ",
". . . .   B N.N.N.n.z.p./ @.W J L L J D L L L L L D < J J L L - 8 L L L D < F L L J L L L J L L L ] ..%.f.k.N.N.N.k.+   . . . . ",
". . . .   B N.n.n.n.f.u.T F L F L L L L L L L J D 9 < F D L L - 8 L L L D : S D J F D D D F L L L L D $.k.f.n.N.N.k.+   . . . . ",
". . . .   B N.n.n.v.k.p.T F J D J J J L J J L J D 9 < F D J L - 7 L L L D : D F J L F D 9 J L L L L D $.p.k.b.n.N.k.+   . . . . ",
". . . .   B N.N.N.n.z.p./ X.U F L J D D D J L L L D < J D D L - 7 L L L D < F L L L L L D J L L L ! ' $.r.k.N.n.N.k.+   . . . . ",
". . . .   B N.N.N.n.z.p.` >.Q L L L J F J L L L L D < J L F L - 7 L L L D < F L L L L J J L L L J } *.%.r.z.N.N.N.k.+   . . . . ",
". . . .   B N.N.N.n.k.p.T H L L L J L L L L L L L D < J L L L - 8 L L L D < F L J J L D F L L L L L D o.p.z.N.N.N.k.+   . . . . ",
". . . .   B N.N.N.n.f.u.^ ..U L J H L L L L L L L D < F J L L - 8 L L J D < F L D D L J F L L L L Q _ $.p.z.N.N.N.k.+   . . . . ",
". . . .   B n.v.n.M.k.u.` ,.Q L J D L L J L L L J D : S D J L - 7 L J D 9 > F L H D L J L L J F J } *.$.f.z.N.n.n.f.+   . . . . ",
". . . .   B n.n.n.n.k.p.Y e K G G q G G e G G G e q 7 G G G J - 8 J G G e 4 G K e e G e G G G e G K 7 o.h.z.N.n.n.f.+   . . . . ",
". . . .   B N.N.N.n.k.p.n a a a a a a a a a a a a a a a a a l - 7 d a a a a a s a a a a a a a a a a p +.k.z.N.N.N.k.+   . . . . ",
". . . .   B N.N.N.n.f.e.j u u g f u u u u g u u u u u g u u d = 5 a u g g u u u u g g u u u u g g u u A k.k.M.N.N.k.+   . . . . ",
". . . .   B N.N.N.n.k.p.j u A z.e.g u u A z.0.g u u A v.0.g d = 5 a j p.p.B u u B f.p.B u u B f.p.B u A k.z.N.N.N.k.+   . . . . ",
". . . .   B N.n.n.n.k.e.j g r.C.C.V u g r.C.V.B u g r.C.V.B d = 1 a ;.Z.V.<.u u ;.Z.V.<.u u ;.Z.V.:.u A k.z.N.n.n.k.+   . . . . ",
". . . .   B N.n.c.n.f.e.j u 1.N.p.j u u 2.N.p.j u u 2.N.p.j d = 1 a V v.n.A u u C v.n.A u u C v.v.A u A k.z.N.v.n.k.+   . . . . ",
". . . .   B N.N.n.n.k.p.j u j C B u u u j C B u u u j C B u d = 5 a u V C g u u u V C g u u f V C g r A k.z.N.n.N.k.+   . . . . ",
". . . .   B N.N.N.n.k.p.j r t t t y y y t t t y y y t t t y k - 7 p y t t y y y y t t y y y y t t t % A k.z.N.N.N.k.+   . . . . ",
". . . .   B N.N.n.z.e.8.M 7 7 7 7 7 7 7 7 7 7 7 7 7 1 7 7 7 8 * ; q 7 7 7 1 7 7 7 7 7 7 7 7 7 7 7 7 7 $.k.z.N.N.N.k.+   . . . . ",
". . . .   B N.N.n.v.p.y._ #.W L L L L L J L L L L D < J L J F * : J L L D < F L L L L J L L L L L ! X.%.k.z.n.n.N.k.+   . . . . ",
". . . .   B N.N.N.n.z.p.' -.W F D D J L L L L L L D < J L L L - 8 L L L D < F L J J L L L L L L J { *.%.k.z.n.n.N.k.+   . . . . ",
". . . .   B N.N.N.n.z.p.T J L D 9 D J J L L L L L D < J L L L = 7 L L L D < F J 9 7 D L L L J L L L D @.k.z.v.n.N.k.+   . . . . ",
". . . .   B N.n.n.n.k.y.^ X.W L L L L H J L L L L D < J L L L - 7 L L L D < F L H H H L L J H L L ! { $.p.z.v.n.N.k.+   . . . . ",
". . . .   B N.n.b.n.k.y.` =.I J L L L D H L L L L D < J L L L - 8 L L L D < F L L L L L L J D L F / $.%.p.z.v.n.N.k.+   . . . . ",
". . . .   B N.n.v.n.k.u.T 4 : 8 S S S 9 8 D S S S 9 : S S S D $ ; D S S 9 : 9 S S S S S S 8 9 S < : 4 @.d.z.v.n.N.k.+   . . . . "
};
