/* XPM */
static char *bf0d3d90b4ad4d7aba29254c6eddb73cg06MDK3eghek5JTw[] = {
/* columns rows colors chars-per-pixel */
"64 64 153 2 ",
"   c #3F323B",
".  c #43333C",
"X  c #4B363E",
"o  c #4C393F",
"O  c #553C3F",
"+  c #5B3D3E",
"@  c #613E3D",
"#  c #64413E",
"$  c #68443F",
"%  c #443640",
"&  c #493741",
"*  c #463942",
"=  c #4D3B43",
"-  c #4D3D49",
";  c #533E43",
":  c #5C3E41",
">  c #513E48",
",  c #623F41",
"<  c #4F4145",
"1  c #554145",
"2  c #5C4344",
"3  c #5F4847",
"4  c #544349",
"5  c #5A464A",
"6  c #564A4D",
"7  c #5D494B",
"8  c #5D4C53",
"9  c #5E5154",
"0  c #624544",
"q  c #6B4542",
"w  c #654946",
"e  c #6B4B45",
"r  c #614649",
"t  c #6D4748",
"y  c #644C4B",
"u  c #6A4D4A",
"i  c #734C44",
"p  c #794E43",
"a  c #724E49",
"s  c #6E5047",
"d  c #65524B",
"f  c #6C534C",
"g  c #6D584F",
"h  c #755146",
"j  c #7B5245",
"k  c #74544B",
"l  c #7B554A",
"z  c #74594D",
"x  c #7C584B",
"c  c #7F5B4B",
"v  c #7A594C",
"b  c #7A5A4D",
"n  c #7B5A4E",
"m  c #7C584C",
"M  c #7C5A4C",
"N  c #7D584F",
"B  c #7B5C4E",
"V  c #7C5C4D",
"C  c #624E52",
"Z  c #684F51",
"A  c #665150",
"S  c #665151",
"D  c #655252",
"F  c #6D5551",
"G  c #6C5552",
"H  c #6E5952",
"J  c #615458",
"K  c #6C575B",
"L  c #6D5A59",
"P  c #725651",
"I  c #795752",
"U  c #775850",
"Y  c #745A51",
"T  c #745B53",
"R  c #725854",
"E  c #7A5A50",
"W  c #7B5D52",
"Q  c #7E5D50",
"!  c #7C5E53",
"~  c #795C54",
"^  c #795E56",
"/  c #735D59",
"(  c #7C5E5A",
")  c #756156",
"_  c #7B6056",
"`  c #7C6154",
"'  c #7E6257",
"]  c #76615B",
"[  c #7B615A",
"{  c #7F635B",
"}  c #7D6558",
"|  c #7C645B",
" . c #7E695C",
".. c #716061",
"X. c #7C6660",
"o. c #7D6961",
"O. c #815747",
"+. c #805749",
"@. c #815849",
"#. c #835B4A",
"$. c #845C4B",
"%. c #805B4D",
"&. c #82594E",
"*. c #855F4D",
"=. c #895E4C",
"-. c #825E50",
";. c #825E51",
":. c #885F50",
">. c #87604D",
",. c #85614E",
"<. c #8B624E",
"1. c #91654F",
"2. c #816153",
"3. c #836052",
"4. c #836354",
"5. c #816356",
"6. c #886250",
"7. c #8B6453",
"8. c #8A6654",
"9. c #886557",
"0. c #876956",
"q. c #8A6956",
"w. c #806259",
"e. c #82645A",
"r. c #85675A",
"t. c #8A675B",
"y. c #846A5C",
"u. c #8B6C5A",
"i. c #916750",
"p. c #946A52",
"a. c #9A6E53",
"s. c #916A5A",
"d. c #8D715E",
"f. c #9E7155",
"g. c #93715C",
"h. c #9B735A",
"j. c #A37657",
"k. c #A37658",
"l. c #A77A5A",
"z. c #AB7E5E",
"x. c #856A61",
"c. c #836C62",
"v. c #8B6F65",
"b. c #906E63",
"n. c #8B7364",
"m. c #8D7065",
"M. c #857068",
"N. c #8C7069",
"B. c #947463",
"V. c #947A65",
"C. c #907871",
"Z. c #AD805F",
"A. c #A38272",
/* pixels */
"4 5 r y r r r 2 X ; 2 0 2 2 2 ; o X O ; ; ; : ; X X 2 2 2 2 ; 1 1 5 5 5 1 1 1 o = 1 5 1 = =   . & ; 1 5 2 2 2 1 ; 1 2 5 3 3 1 1 ",
"! ! W ! ! 5.r.^ ; 1 ' z a e u h i N N N N -.2.5.2 = [ f 0 0 w w 0 r y f f k T r y P u y w r = y f f k T W _ | H S x.[ ! E k k T ",
"n n l l l n 2.' ; 3 ^ e @ @ # # i &.j j @.@.>.8.2 ; R w 2 0 0 0 0 0 2 0 w u f 3 7 u 0 0 0 2 y u e s s h l n W d S m.8.&.n k k c ",
"c c k h h k ! _ 1 F k # + + # # i i i p j j $.6.0 1 f 0 0 0 0 0 0 0 2 2 0 w f 3 3 u 0 0 2 0 0 0 e s h l l c B d y w.N n k k n N ",
"c c h h h h ! ' 5 f q + + @ q q i i i i j j @.*.0 1 f w 0 0 0 0 w 0 2 2 2 0 u 3 5 y w 2 2 2 : 0 e h h l n V 2.z C ^ l k n N &.*.",
"c c l h h k ! r.3 u q # # $ q q i i i p p j @.>.w ; y 0 w w w w w 0 0 0 0 0 u 5 1 y w 2 2 2 2 w s h l c V 2.q.' S [ n c *.>.>.>.",
"c n k h l l 2.u.3 u e $ q q q q i i i p p @.*.<.w = 7 F f f f u u w w w 0 w u 5 2 y 0 2 2 0 w e h k l V 2.2.u.5.y e.2.>.>.>.<.<.",
"c h i i l n 5.u.5 y e $ q i q q i i i p p $.<.<.y & ..o.) T f f f f u w w u f 3 5 y 0 0 0 0 e s h l n >.2.5.u.5.y e.T W >.>.<.<.",
"2.V n l n ' r.u.1 3 e q e i e q i i p p j *.7.>.0 7 | | | [ / T T k f u u u f 5 5 y 0 w w e s h z V 2.5.5.u.u.5.5 S / 2.<.<.<.<.",
"q.5.V n ! 5.r.W ; 5 e e i i i i p j j j j $.<.c 2 5 / / / / / R H f f f f f F 4 5 y 0 w e l l n ' 5.q.u.u.u.5.k 1 L e.*.&.N *.<.",
"e w 0 2 2 w w O . X O 2 2 : + + 2 q q q e e 0 1 & & 1 1 1 1 ; = ; 1 ; ; = & = . & 2 2 0 0 0 2 0 0 y f f f y 2 ; % 4 2 w e e w w ",
". = 4 1 ; ; ; ; 2 2 2 ; 1 2 2 2 & J L f F H H H S S S F L / S % - F S S S y y y y d S S S F y = 7 6 7 y y r r 7 7 ; 1 y u f y r ",
"= r a u t r 0 t t t w w u f ^ ^ 4 L y.' ' ' y.r._ _ _ _ | | [ 4 9 c. ./ R / / T ' _ ' ' ' y.L 8 X.! ! ! n k k k k u ! -.q.h.B.g.",
"= : t 0 2 : : : : : : 2 w u P k - S W z z z ' ' z k f z T z T 6 J | / d y f F k z B ! W ! ' S 8 [ ! n n h e e e e k l i @.7.6.-.",
"; ; t q 0 , : + : + : 2 w w f t = Z z k k z z z z f f f z z T 6 J ) T y 0 y f f k B ' ' ' 5.d 6 w.! n n h i i i i i i h $.6.:.&.",
"; ; t t q q , + + : : 0 w w t 0 = S n z z n z z z f f k z z T 6 9 / T f 0 r f f k n ! ' 5.0.T - T N n n i i i i i i i l =.6.=.$.",
"; ; R t q q , , + + + : 0 w w 0 = F ! B n n z z z k z z n z g 6 9 / F y 0 0 y f z B ' 5.5.q.T = S -.N l i i i i i j j +.$.*.-.*.",
"= r a t t q , , + + : 0 0 w t 2 = T 5.! z z z z z n n B W T z 6 9 / f y 0 y d f z B 5.0.q.d._ 4 { -.N l i i i i i j l +.@.$.$.$.",
"= ; t t t q + : : : 0 w w t u 2 = / 5.' ! n z z ! ' ' ' ' ) T 6 9 / F f y y f z n ' 5.u.u.B.T 4 w.-.N n j i i i j l @.@.*.@.@.$.",
"& = 0 w t t w w 0 0 w t t u t 1 = / ' 5.5.' B ! 5.5.5.5.' T T 6 7 / T f y r n ' 2.5.q.u.u.d.f 1 w.-.n k h h j j j @.=.=.=.@.+.*.",
". . = ; 0 w u t 0 0 0 2 0 2 : o . r f k T k f k z z T T f y y ; = 6 y 3 1 S f f f z ' 5.5.T 3 = u a i i i i i i e i h h h i i l ",
"; = ; 1 2 2 1 ; = ; 1 1 ; ; ; = o 1 3 r r r 2 2 o ; 3 2 2 2 1 ; < 1 6 6 1 7 1 = o ; 1 2 2 1 ; ; ; ; 2 2 2 2 5 ; X X ; w w w w t ",
"k k E k k k f f 2 r ( ( E ! -.-.2.8.8.8.2.8.r.[ 5 L o.) | ] / H T ) ) ) ) ) ) d 4 / S r r y y y y y y y y F ] F ; r ( r.N k k k ",
"a k k h u u u u 2 7 R a q q q i j l +.l *.7.s.e.3 L | T H g d d d d d d d H | d 1 F 0 2 2 2 2 2 2 : : 2 2 w k ^ 5 e.b.-.a i i i ",
"h l k h s h u u 0 7 k e q 0 0 e j l l n &.:.*.! 7 S ) H d d d d d d d d d d ) H = 3 2 2 2 2 2 2 : O O : 2 w u F 4 w.s.n a a a a ",
"k n n k k k k k w r k q q 0 q i j l +.&.@.+.+.N r S ) T d d d d d y d d d g _ H = w 2 2 0 2 2 2 2 : : r 2 w e y > ^ 6.l k k a a ",
"l n n n n n V V h r l i e q q q i l l @.+.+.+.&.r 7 / T T d d d d d d d d H | H 1 u 0 0 0 0 2 0 2 2 2 2 2 w w 5 4 E 7.*.N n l l ",
"n n n N n 2.5.5.f 0 &.l j i i i i j +.@.@.@.@.&.y 3 / / T H d d d d d d g T | H 1 u w w w w w w w w 0 2 0 w u k 5 E 8.7.=.*.&.l ",
"n n V V -.5.u.u.r 2 &.$.&.l i p j l @.=.=.=.<.*.r 3 ) _ / H d d d d d g H )  ./ 1 u e t u u u e e e w w w t h k 4 E 8.6.<.<.*.N ",
"! ' 2.2.5.u.u.r.2 2 -.7.=.+.j l +.@.@.=.<.<.7.6.2 3 / / d d d d d d d g T  .y.H = f u s k k k u w u h u u h k k 1 T 8.7.<.6.<.*.",
"W W W ' 5.5.5.! ; 2 u k &.+.+.+.l @.=.<.7.*.*.&.; 1 H f 6 y d y y y d d H T H d & r u s k T z s r k k u a u e 0 ; u -.2.2.6.<.*.",
"2 2 1 2 0 0 2 1 . . X X ; : 2 2 0 0 q e w w w 1 . & 1 2 = = 1 1 1 1 1 1 = = * < . o 1 2 2 2 2 1 1 2 2 2 2 ; = = = ; ; 1 0 0 w 0 ",
"k P ; 1 L F S y 5 = r y y 3 3 3 5 4 6 / / [ | y.| [ / T F F d & 4 S S d 1 * 3 k z E W 5.5.5.' ' u & / x.w.E I ^ T 5 F R P P P k ",
"n 5.P 4 c.X.L H d 7 f y y y y f / S S C.V.V.V.g.u.5._ _ _ e.y.5 F [ T W d 1 T 8.2.&.&.7.8.q.g.g.5.; c.A.t.N N -.n u -.n E n n n ",
"n ! T 4 ] / G d y S f y y r r r f y 7 v.u.u.8.! z k k k T T | 7 S k h h u y t.2.&.n j n c @.*.8.2.5 N.B.n k l l k k a k n n n v ",
"n N T 4 L / f y d G f u u y y y u r 7 y.8.2.&.n k k s s k z T 7 J k h h k ! -.@.l n i h n @.@.&.N 5 x.n e i a a a i i k n n c c ",
"N ! P 4 F / G y y d f f f f y y u y 4 ! *.&.&.n k k k s s k T y 8 T h c &.&.@.@.@.j p i h l c c k 4 ( i i i l l l l l k n n c c ",
"W ! T 4 F / F f f f f k k f f u f f 1 E &.&.&.V n z k k k z W y - 8 ^ $.*.=.=.$.@.j p i i i j n h 4 ^ h i l j l l l j l n n c c ",
"z T P 4 L / H F F f k k z k f f z f 1 T &.&.&.&.V n z z z z T 7 4 K k &.=.<.<.$.@.j i i i i i h k 5 I N l l l l j h j h n c c c ",
"f k f 1 L R F F T T k z z z z n _ P 1 T V &.&.V n n n W ' 5.' y 8 ( k &.=.1.<.$.O.j i i i i i i e 2 ^ -.j l l l j j n n n V c l ",
"f f f = L H F P T T z z z z W 5.5.y 1 P N N n z k k z W 5.r.y.d 4 P u @.<.<.<.$.O.O.O.j i i i i e ; ! 8.N l l l n c c c &.&.c z ",
"f f r = 7 y y y f f f f f k E ' S ; = r h h u u u s s h k f P 4 % 5 k n &.*.@.@.@.@.@.l h i e e w X P 8.N k k k n c c n c c c k ",
"1 5 4 = = = 1 1 1 = = 1 1 5 3 3 1 ; ; 1 5 2 ; ; o ; 1 2 2 2 1 ; = 1 2 w u u e 2 1 w s u u u y r 2 ; 2 y 0 2 1 2 1 2 3 3 r r 2 2 ",
"T H H F f y f f / 7 7 F y r y S w y S F f f y S 7 1 T z B ' _ ! k l l n z l ! s = T 5.! -.5.5.! ! ' ! ! ! W z T 2 / M.o.| | ) / ",
"f w w w 0 w w e T F y u 0 2 0 0 2 0 0 0 0 w w w r 2 k l c N V c c c n h h i c k o 3 e i h n N n n V N n l k h k 2 / c./ T T k f ",
"e w w w w e e s B H r w 2 2 2 2 2 2 2 0 0 0 w w r 5 k k l c c c &.&.c h h h l h & y w w e k c n n n j h h h h n r / [ T z s f f ",
"s s s s s s e s ! T r w 0 0 0 0 2 2 2 2 2 2 0 u y 3 T k l c &.&.*.>.*.c l h n e = f w q e i h h h h j j @.c c l 0 S ) k k s f f ",
"k l l l z z k k V T y u e q q q q q 0 0 0 0 w k F 3 W k n &.>.<.<.<.<.>.c n c e ; f e w e e i h h l @.$.$.$.$.l 2 4 F z k k s s ",
"c c l l l z l c 0.W y f e e e e e e e e 0 w s W T 3 T l c <.<.p.p.p.p.<.&.&.@.w = k h q e e i j @.$.<.<.<.$.$.n 0 6 _ ' ! n z z ",
"c c c c l l n 5.g.' r s e e e e e e s h u s k _ T 2 T l c <.i.a.a.a.a.<.$.&.&.0 = P n h i i h c <.p.p.p.<.=.$.@.s r 5.5.5.! B B ",
"c c c B V V >.0.g.' 2 f e h h i i h h h h h z W k 1 z c &.<.p.a.a.a.p.<.$.&.&.0 & F s c @.@.@.<.a.f.f.p.p.p.7.7.k 1 ^ 5.5.' ' ! ",
"B N n V >.>.>.2.q.T ; u e k l k l l l l h h k z k 1 k c &.<.1.p.p.p.>.k >.&.&.0 . 3 E <.<.<.i.a.f.f.f.a.h.h.q.5.e ; T 5.5.5.5.' ",
"e e e h c c l h y ; = 2 2 w h h e e e u u e u s u ; t e h l n @.*.&.n r n c l 1 . y 2.p.p.p.p.p.7.7.p.p.h.p.&.u O X r k T T k f ",
"X ; 2 0 w w w r 5 1 ; 2 2 2 2 ; ; o 1 1 2 2 2 2 2 1 1 0 y u u 2 ; 2 3 5 5 1 1 1 1 4 y f f f 3 1 2 0 w u u w 2 1 ; ; 1 5 r r y 2 ",
"6 ] e.5.5.5.! ! ! ! E ! ! ! 5.w.T 1 5.8.5.-.&.&.&.&.2.8.8.8.8.u 6 | |  . . .c.c.c.c.n.n.V.d.f * C / / P P P f f t t u h k ^ y.^ ",
"6 e.8.2.-.N k h l N l l i q i -.T ; 5.s.@.l l @.j j +.@.@.*.7.f 7 y._ / _ [ _ T T T _ r.y.d.r.1 F { T s e q : + : 0 q q e e z T ",
"> P -.7.<.l i i i i i i q q q h k 2 5.l i p j j j j @.$.@.*.7.k 5 H f f f z f f f f z T W r.u.4 r P u w 0 + O O + 0 0 q e e h k ",
"4 k -.i.i.<.@.j i q q q q q i i n r E i q p j j j j =.<.i.i.p.s 5 F f f f f f f f f z z z ' _ = r k e q 0 + O O + 0 q q e e h k ",
"4 k 2.a.f.f.a.1.@.p q q q q i j l u N i i i p j j O.$.<.a.a.&.; 5 f f f f f f f f f z z z T L 4 7 P e q 0 2 : + 2 q q e e h c n ",
"4 k p.f.j.j.j.a.=.O.p i i i p +.l f 2.j p p p p j j j @.<.p.7.1 6 f f T T z f f f z z T _ y.n.8 7 k e q q 0 2 2 0 q e i h l 8.5.",
"> k a.j.j.k.j.a.<.$.O.p p p O.=.k P -.j j j p p p j j j @.p.h.w > y H _ T z f f z T T W _ y.c.8 Z k e q 0 0 0 0 q q e l l n q.r.",
"= n k.l.z.k.j.f.1.=.O.j p p @.6.e f @.@.j j j p j j j j @.i.p.u 7 ] [ [ T f f f z T ' W _ y.y.S Z T e 0 0 q e e e e h c V >.q.5.",
"= u h.z.Z.k.j.j.a.1.=.=.O.O.@.-.2 e j @.@.+.j j j j @.=.<.p.p.0 6 [ / / k f f z T T W W _ y.| 8 y k h e e e h l c V V >.5.q.u.T ",
"= 5 2.h.h.p.6.7.7.<.@.@.@.l $.k O 0 i j j j j j p h l *.6.6.V 1 = f f f f f f f f f f T T S S 4 3 f u u u e e h l n n c V 5.5.y "
};
