/* XPM */
static char *_7e79e4ebf414344b7538d0cc1fbc65dv3WULEoptvsjbjaX[] = {
/* columns rows colors chars-per-pixel */
"72 72 129 2 ",
"   c None",
".  c #49515B",
"X  c #27262D",
"o  c #3C424F",
"O  c #1E1D22",
"+  c #292A31",
"@  c #464953",
"#  c #242227",
"$  c #201F23",
"%  c #4A5565",
"&  c #44464F",
"*  c #29272C",
"=  c #2B2D34",
"-  c #42434D",
";  c #25242A",
":  c #4D5869",
">  c #343842",
",  c #414149",
"<  c #3E464F",
"1  c #282529",
"2  c #485263",
"3  c #454D5D",
"4  c #383A43",
"5  c #414852",
"6  c #474E57",
"7  c #455062",
"8  c #33343C",
"9  c #505B6D",
"0  c #434B56",
"q  c #37373D",
"w  c #444C5A",
"e  c #434956",
"r  c #3D3E48",
"t  c #2D2B2F",
"y  c #475060",
"u  c #3E4451",
"i  c #30333C",
"p  c #3D414B",
"a  c #505B65",
"s  c #5B5356",
"d  c #525E6F",
"f  c #3A3E4A",
"g  c #56626A",
"h  c #4E5761",
"j  c #383439",
"k  c #383D48",
"l  c #4B555F",
"z  c #404958",
"x  c #4A5568",
"c  c #556273",
"v  c #302E33",
"b  c #515E6B",
"n  c #3B3C46",
"m  c #3F4755",
"M  c #323138",
"N  c #536270",
"B  c #5D6872",
"V  c #2E3038",
"C  c #495460",
"Z  c #45515E",
"A  c #586777",
"S  c #3A3A40",
"D  c #505361",
"F  c #373236",
"G  c #3C373B",
"H  c #4D4E57",
"J  c #313540",
"K  c #4A4346",
"L  c #413B3E",
"P  c #525E67",
"I  c #454F5A",
"U  c #544A4E",
"Y  c #4F5B68",
"T  c #4C515D",
"R  c #484B56",
"E  c #454145",
"W  c #4C5664",
"Q  c #50525B",
"!  c #4A464B",
"~  c #4A4A52",
"^  c #59656E",
"/  c #4F4649",
"(  c #584E52",
")  c #4D586B",
"_  c #383E4C",
"`  c #342E31",
"'  c #353B46",
"]  c #5B5D68",
"[  c #5F6068",
"{  c #655E62",
"}  c #5D565D",
"|  c #403D43",
" . c #576673",
".. c #4C5965",
"X. c #545660",
"o. c #525766",
"O. c #51484C",
"+. c #505F76",
"@. c #424B5E",
"#. c #5B6B78",
"$. c #4E5B71",
"%. c #6D7D8B",
"&. c #575C65",
"*. c #475267",
"=. c #473F41",
"-. c #545D6A",
";. c #575F6F",
":. c #686367",
">. c #544E53",
",. c #5C687B",
"<. c #5C6B80",
"1. c #61575A",
"2. c #55647C",
"3. c #4D4851",
"4. c #625A5F",
"5. c #606C76",
"6. c #60707F",
"7. c #62707A",
"8. c #65747E",
"9. c #637585",
"0. c #5F636D",
"q. c #697881",
"w. c #575057",
"e. c #6F6970",
"r. c #6A666B",
"t. c #60728B",
"y. c #849AB1",
"u. c #1C1B1F",
"i. c #424A5A",
/* pixels */
"q t | Q ~ @ - - ~ 4.4.1.1.s t # 8 R a a H K L 1 + 5 o.;.-.-.2 2 y z o z i.i.@.@.i.i.y 2 : : D E M & 6 @ - n n p 6 h b b b N 5.] - M X.;.W T . Q ",
"F # | Q H R @ ~ } { { 1.4.( 1 # V h P C a [ 1.j + . 3 u o u m z z i.z i.@.3 y y 3 @.y 2 x 2 -.~ v 5 6 @ @ r f 5 . a -.P P B #.7.h M ;.9 3 3 3 W ",
"q   r X.Q H X.{ :.:.:.{ :./ # O * T Y W W W Q G * 6 e f f p o u m w y 7 7 7 % 2 7 2 x : : Z % @ * - 6 @ . 6 0 l P B 7.5.B 7.8.q.6 r ,.;.3 i.i.) ",
"X.# r &.X.X.X.[ :.r.:.:.{ L $ u.$ n h ..C . I 4 t . w f 4 4 k o m @.7 7 7 % ) ) ) : : : % @.@.u * & 6 6 6 6 l -.^ #.7.5.5.8.q.q., . <.9 y i.@.) ",
"B * S ] ] ] ] [ [ :.r.e.4.G # # * < g a w w w n t . 3 u f f k p u z 3 2 x 9 c c d 9 : x y 7 ) p # = n 4 p 6 P g g g ^  .B q.%.q.q o.,.9 2 3 3 x ",
",.v S ] [ 0.[ [ :.r.:.r.q.L 1 # + 5 N b 0 o w , * 6 y w w R f p u m z 2 9 c A A N 9 2 3 y 2 N 0 ;   8 6 l P ^ ^ P g B 5.5.8.q.5.M o.A d % y y 2 ",
"6 + , &.0.B 0.[ [ r.[ [ :.K 1 O * 0 b a C I I n 1 & W W W e p o u m z y ) N c N : 2 Z 2 x x c Y = # i 5 h ^  .^ g B 7.q.8.q.^ r t 3 9 ) 2 m 2 2 ",
"*   r &.0.B 7.5.0.[ { } w.L 1 u.X < . . I I 0 S * S ..: : C e o o u m z 3 x x x 2 Z Z 2 % 9 c 6 = O * ' l g P a g B 8.%.%.%.- q q ;.) 3 m _ 2 2 ",
"1   q X.&.] 5.7.0.} s s >.F $ u.; ; f 0 e 5 < q # + 8 ' 5 y 3 u o u u u z y 7 3 m _ z 2 x ) b r v O O # = 4 k i i 4 p 0 h B - q M Y 3 i.z z 3 o.",
"  O 1 & @ - , S F G E | v 1 # O O O ; X ; # * v 1   O O # X = + + + X X V J i = + # X i > V = * * $ O $ O O u.u.u.u.O O $ X t M * # * V X + * X ",
"S M v 8 8 V ; $   $ $ O # v F t 1 * 1 # * S G ` ` ` # t S M v * ; ;   # ; ; O O u.O O O O O $ # v ` F S S q F t $ ; , & - S M q q v *   u.1 j q ",
". h g ^ B q.5.h ~ q = p o.X.D & - - - v V @ R & - ! t 8 & , , , , | S H D Q j * 1 M R . r S r f u w y Y -.o.H H r ; D ;.-.;.Q ] 8.B [ ! # M 0 e ",
"l g g a h P B 7.5.n M d ,.d 9 ) W y y = V o m z u R p p @ - , , @ @ @ T o.&.Q E G 8 9 <.) 2 2 @.m z 7 x x 2 x : 3 ; 0 9 % : A 6. .W C R * i e e ",
"a g g h h P ^ 7.%.n M ) c % 3 y y w w p 8 m m w u u 5 p @ @ n & @ @ @ R D D o.-.X.4 @.*.7 *.*.7 _ m 7 *.*.7 @.3 2 X k Y % % % % % y e k X V @ 6 ",
"a g ^ P a P ^ ^ %.& * . A % y 3 3 w i.Z W 3 i.W e o u n H H @ H R @ e H D D -.c ;.k @.7 x $.x 7 @.*.*.*.7 7 @.z y * = y % % % % 2 0 u k 1 = @ l ",
"P g ^ ^ g g g g %.X.* W 9 2 2 y y z i.i.i.i.w 3 w w z n T D o.D 6 @ @ . D D ;.,.c f @.+.$.$.) 7 7 7 *.*.*.7 7 7 3 + ; ' y 3 3 2 y 5 o f 1 M @ T ",
"h P g g ^ ^ g a 5.H ; 0 : 2 2 y Z w w 3 3 w 3 Z Z 2 C n T D D D H @ R T D o.;. .3 > @.+.$.+.) x *.7 *.*.*.2 x : 2 = # > w z z z _ _ m p * > < @ ",
"6 . P P g ^ g a a = # ..d % % % 2 y 2 % 2 y y 2 % d N , D D D D T R R T o.o.c : #.n _ +.2.2.+.+.$.x ) x *.*.7 *.% = ; f z 3 y m 2 3 z p * r 5 < ",
"< @ l P ^ g P a P M ; 3 d 9 ) x x : 9 : W : 9 d N <.A r D D D D T R > e o.o.c c ,.J ' +.<.t.2.2.2.$.$.) x *.z 2 y + = m 2 7 Z y 2 i.z 5 = p p p ",
"< 5 . a g P a a P q # p d d 9 x : ) 9 d N c #.<.,.6.6.& D D R T T R o.6.o.o.-.B ;.4 _ 2.t.t.t.2.2.+.$.) x x ) ) z X i m y % 2 % 2 3 z 0 8 p p p ",
"p < 0 . . 0 6 l P 4 ; f 9 : : x : 9 d d c 6.9.9.6.6.9.& R D D T T R T T D D o.d ;.r z +.<.t.t.2.+.+.$.$.: *.2 7 i.X = J w % % % % % 3 0 q k 4 n ",
"4 r p 5 5 > p . a n ; f w y % 2 2 ) N A 6.9.9.9.b y <.r & ~ R R @ @ - - 6 T o.d ;.4 z x 2.t.t.2.2.2.$.$.*.7 7 @.m + > m W 3 y 2 2 2 y 0 8 4 > 4 ",
"i i i J 4 f k p p M   * X X = + k u 2 N % u _ _ V # y 8 S S S 4 4 S 4 4 p 5 & p & = + > 7 +.+.+.+.x 7 @.u _ _ _ 8 + > 8 + = = + X = i = v i i i ",
"$ # # ; v 4 q   $ # 1 1 1 # $ O O O   X     # ;   # ; # # $ #       # #   $ $ $ * X t S E ! S X ;     ; ; ; * v * ; * #   $ $   #     $ $ O u.u.",
"8 4 4 n 5.q.%.-., & Q Q ~ H & | M v #   , H ~ H ~ L =.K L F F S S r R ~ n M # ; t j ] 0.] X.U G * 1 $ S X.~ ~ &.Q E K 3.K E K K / =.K =.G t   * ",
"5 C l B %.A 6.%.<.<.<.A A <.#.-.Q & ` 1 , &.H | L L K e.r.=.n e 0 u u e 5 o.r X # - <.) 0 e w.O.L F * B %.] &.] [ [ ] } w.>.3.O.U / O.( 4.K * v ",
"- h a ^ c  .A #. .) : : x ) ) 2 o.X.j 1 q 3.! K | L G } { Q J z m u _ _ _ w &.G 1 w 2.% w u & ~ O.L v #.;.X.X.X.] [ [ [ { { { 4.s U / K >.w.` * ",
"- 5 0 C Y N #.#. .N Y % % ) % y y -., 1 S >.>.>./ E | L >.0.> y z u _ _ _ o T 8 t c <.) y e f & >.E v D &.X.X.&.[ 0.r.[ :.r.e.:.4.s s ( ( U F t ",
"f 5 I C Y N #.6.A  .c 9 9 9 : 2 2 W & 1 M >.s >.O.K ! | E , ' % 3 m o _ m w T t M <.<.d y w o ' - & q - ~ Q &.] ] [ [ [ r.e.e.e.:.4.s s ( K t t ",
"r 5 y W b A #.7.6. . .N N c 9 : 9 c R 1 L s w.s >.U U K E q k 2 y m o u w e T v 8 <.<.) y 3 m k r ~ r - H & R 0.0.] [ r.e.e.e.e.r.{ 1.s ( =.` t ",
"p 5 C Y  .#.7.%.6.#.#. . . .9 9 c ,.- 1 O.s s s w.>.U O.K - _ 2 y w m u u o W 8 J ,.<.: : 2 w u n ~ S Q ] ] Q 5.[ ] ] :.e.e.e.e.r.{ 1.s U =.` v ",
"i u Y N A 6.9.#.#.#.A c N N 9 : c 8.& 1 O.w.s w.>.U U / ! & _ 7 3 z m m o o o.- 8 ,.%.6.: % y T . @ M ] 8.[ 0.0.&.X.&.] [ r.r.:.{ { 4.s U =.j t ",
"J x d  .A 6.6.C N A c d d d 9 d c %.~ 1 K U >.U U O.! K ! - > Z i.z u u m m y - V d t.c 9 Y W -.a l q r %.0.Q Q H Q Q Q X.] 4.w.} 1.1.s >.=.G * ",
"7 $.d  . .c A 6.q. .d N d b c A ,.9.D * | ! ! ! / ! K ! ~ , V i.z z m o o > 5 4 8 5 c ,.d d  .g g g p + R p ' > q , & & & | 3.>.( s s s ( K L ; ",
"w N ..b b b d A #.N d d d b N ,.9.9.-.* G ! ! ! O./ ! 3.X.S + o o u u _ + V 5 i V u e y I Z l h h I q O $ $ $ O O $ $   $ O O $ 1 v F j E K =.; ",
"p < J k l h l W -.Y Y Y 9 b c <.9.9.& $ v E E =.=.L L | ~ q # i > ' _ = O # ; # $ # O O $   X + ; # # # 1 * t v t *   # # # $ O O u.u.O $ # * $ ",
"M + V V V V V + + = M 8 > k u . l C M $ $ 1 1   # ; * * * * # X * * ; # # t j q q + ; *   ; R T & & | - & - & M q -.X.~ , q v v t * t v j j j j ",
";.5.B , # 8 q 8 M L L K K =.G ` v ` G K G F t 8 p 5 6 5 @ . R & - - * ` E H X.B c 5 & H | X . % % o.;.A +.% Y S M #.8.B g -.h Q @ * q p - . -.;.",
"$.9.y.%.8 ;.o.H ! , , 3.>.w.>.~ } U U O./ ( G S I . < 4 0 5 5 u o R v v -.d % 9 9 Z m T , = w 7 7 y : d c 9 x R M l 7.B B B g h 6 * n e 5 0 % $.",
"$.$.%.y.r ;.A X.3.! ! 3.3.Q } w.O./ K =.K U j 4 . . 5 0 0 5 < 5 u T S t m i.w y : 9 m m & + z 2 7 y 3 : 9 ) : 9 5 . 8.8.7.8.B h @ * @ w 0 3 y x ",
"$.$.+.t.n D ,.-.H 3.3.3.>.w.( O./ O.O.K / U j p l . a I 0 5 5 e 0 . q 1 4 i.i.3 ) 2 z 3 u X u 7 Z 7 y : : 9 9 % u q 5.q.8.5.^ Q @ * p e w 3 y % ",
"$.+.2.+.> T ,.-.Q H 3.3.>.>.U / O.U ( U U U M r l l Z I I I 0 0 l -.r 1 8 3 3 3 W Y d : y + > u w 7 % % : ) x % f , 8.8.8.B &.. & * f u e w y % ",
"$.+.2.2.> - ] o.Q H 3.U w.w.U U U ( s ( L F * S C h h ..h C . l -.#.S 1 u ..W C % : : 9 : + i C 2 7 % W ) 9 b % f g 8.7.7.7.&.. , * p e e R 3 y ",
"$.+.2.2.4 n D o.& 3.Q ~ } } } w.s s 1.s F 1 1 q h a a P a W a b A ^ M * u 2 y 2 : : : d : X V Y d : : Y N c N ..' 6 a ^ 5.B &.R & + o e e 3 y % ",
"$.+.,.<.e q D 0.0.] ] 4.} } } } :.{ } 1.O.L t M . P b  .^ g ^  .A h v * k % W : : : Y c d = = 0 N : : : N N Y C > 5 Q h g g Q & & = D w e w y % ",
"$.2.A <.u q D X.] ] } } >.} 4.} { 4.4.s U ( F * r a g  . . .5.B Y 6 M * V w : : % ..d A c + ; > ..% % % W W Z I > - . h &.a H @ R S o.3 3 3 y % ",
"u u k u V = & R @ 3.w.w.! 3.} 4.4.4.4.} ( U `   # q r < < 5 l 0 8 8 8 * $ X f % y y W d . X $ + > > > > J i i J + 8 p - @ @ & , 4 M e e m u u o ",
"    ; + t # ;   $ $ X v t v j L | | L G j F * $ u.u.u.u.O O O u.u.O * 1 O u.$ p W f f m k # O O O O ; t t v F t # # ;   O $ $ $ O O ; ; X ; ;   ",
". T D Q H S v * * ;     # $ $ u.$ X + * S ! X.F t 1 O # M q q S S j v ` *   u.+ o k V V V t F | & S q } } 1.s O./ / / ` ; 8 p 5 & 4 > ' 5 . . h ",
"Y o.W T & | S q G S S | E E j $ $ 4 u R P B B | F ` $ * H ^ 5.5.5.B X.H K j # $ ; * * + 4 h 5.5.8.B 4 :.{ 1.( U U U U =.t I C w m m m 3 % ..: : ",
": W . R & , | S j q | | | K =.* V 5 6 h g B g E =.F # * a 9.<.#.6.6.b l Q ! F # 8 5 0 I ..c #.N N b q { :.{ 1.s ( / / K 4 % y m m 3 2 2 ) d d 9 ",
"W T 6 @ & - , | S | K K K K =.t 6 l . 6 P B X.G =.F 1 ; k ..C w 0 0 y . 5 ~ L v m C I I I ..b b b I M { :.{ 1.s ( / L K n W C . . y 2 % 9 c c d ",
"T R @ @ & - E | | K K K / / =.` h h l . -.B ~ ` j ` v -.;.I . I 0 u 0 I 5 < q X 0 Z Z W ..N N b N Z 8 { :.{ { 4.s U =.L 8 C C W Z w W 9 d c N 9 ",
"... @ @ - E =.=.E K O./ K U K ` h h a 7.^ g h j F v S 5.Y 0 0 0 0 5 w 0 < < q V Z Z Z ..b b Y l c ..M { { { { { 1.s O.=.v w I w w w 2 9 c c N d ",
"b T @ - , - E K / / U U K L K ` . l l a P P h j t v ;.8.-.W C C . . C I 5 < > i C z Z ..b N I w t.A v { { 1.1.1.1.s w.! V 0 w w w w % d A ,.,.c ",
"C & , - , - K K U ( s ( O.=./ ` T l l . g P Q v   4 q.6.N g b b b C C C 0 < k V w z Z ..N  .N 6.%.A t } 4.1.1.s s s U G V I w e w 3 x ) c ,.A 9 ",
"0 - , - , - ! K U ( ( s ( ( / v 6 6 6 l g P Q G # f %.%.#. . . .^ l I w 5 5 < = o m Z Y N N N 2.t.Z ; O.s s s ( ( ( E t i l C w m o m % d c ) 2 ",
"- , n r n n , ! O.U O.( ( U L $ # 8 k p l l 5 * 1 > 8.q.B  .^ N b W C C C w 6 + X + + i > 8 V J ' = O 1 t v F F G L | v 8 0 5 o ' + = m z z m w ",
";     ; ; ; X v F G G G G G ` O u.  # $ ; X ; $ ; * = V = i > f > V ' k J + + ; + i i i 8 > S 8 + 8 M v v # u.O $ $ ; * #   O O O O O $ O O O ; ",
"q 8 V V = ; M , |   O O $ 1 S , S v v t 1 ; t j j v * # # 1 1 ; # ; X t * # # + J ' ' > _ 5 u p _ u 5 h &.G F S S | ~ Q H H ~ v X i 4 p 4 J n 4 ",
"< < u < > 8 T &.Q G S v # M @ & @ @ , S q M j & H Q R - n | | S q L | E ! G 8 ' ' ' = ' m 5 5 5 < k u . . 1 q I y h B 9.%.%.%.5.- ' k o u o _ o ",
"p o p o 8 8 6 T Q ] &.~ v , - r r r q 8 j | & R . T R - , 8 M F j j G F G | p m u m o +.W C w 0 < < < I ~ # = % b d c c A A 9.%.r = i _ _ > _ m ",
"k k k f 8 8 6 T h h h Q j -.D p f 4 8 q > n p & 0 6 6 R ~ , q S j G G | | j p I w 3 +.+.....C I I 0 < I R   + % C C ..W ..W a ^ 8 i f k o @.@.o ",
"k k k k 8 8 6 h &.&.a . q ;.T r r 4 4 4 4 4 n u @ R @ & @ H H G F F F j F M f C l W b b ..Y P ....C Z P & O + . I . I 0 I 0 5 & > k f ' ' ' > > ",
"J > > k k q T a &.g &.6 j r & n n n 4 n r r - - - , , , - - | j F F F F F v k a b Y a ..a b g -.P a P ^ 6 $ X w I 0 5 < < < < e 4 > o k ' > > > ",
"i J > k r S h &.^ B g h j q - r n n 4 n r r n r , , - & & @ - q F F G G S v k Y  .b Y Y a Y b -.a a -.5.X.$ + W . 0 < < < < < < V V u o k > J > ",
"i J > ' 4 M . &.^ B B g j S @ - - r n r r 4 n - & @ @ @ H R , S j q G S , r p a <.A N N b Y a a h l h B g ; = h 6 R 0 5 < ' ' p = i 0 u f > J J ",
"i i > > V = . T . g B g q M R R @ - - & r 8 n r - @ H H H ~ r 4 S , , - @ & < .. .#.A c P h l h h . . -.&.X # , 6 6 6 0 < ' > p = = e m f > J i ",
"i J J J = ; 8 X M l ^ &.v ; R H @ & - p n n n p @ H H H R - r n n , & ~ Q @ < Y N A  .c b h . l l . . l T ; $ n 6 6 H 0 < < k k = $ V ' > V V i ",
"; X + + ; u.O u.$ * = F `   q S 8 M V = + + X + + = v = = * * + * * t M S q = k p f f 5 5 0 0 . T 6 6 l T +   r @ & , > i = # * * u.u.O $ O $   ",
"O O # t S | G L E ! ! >.s t u.u.$ $ $ O u.u.u.u.O # * 1 # # # # # # # $   $   * t * 1 ; 1 * X + + + + t *   $ X X #     1 * * # $ $ # 1 1 * t   ",
"1 1 v , & & ! 3.>.} s s } L u.$ F S G F 1   u.O t 4 ~ X.Q Q H & & ~ ~ q S r u w 3 @ , r - @ q   # F S | | q v = M q , ~ H &.K ` * F ~ E E ! >.K "
};
